<svg xmlns="http://www.w3.org/2000/svg" width="277" height="320" viewBox="0 0 190.29 219.65"
    shape-rendering="geometricPrecision" text-rendering="geometricPrecision" image-rendering="optimizeQuality"
    fill-rule="evenodd" clip-rule="evenodd">
    <path
        d="M99.24 2.36l43.45 25.09h.03l47.57 27.46v109.82l-47.57 27.47h-.03l-47.54 27.45-47.54-27.45h-.04L0 164.73V54.91l47.57-27.46h.04L95.15 0l4.09 2.36zm35.24 39.31L95.15 18.96 55.81 41.67l.01.01-39.33 22.71v90.87l39.33 22.71-.01.01 39.34 22.71 39.33-22.71v-.01l39.32-22.71V64.39l-39.32-22.71v-.01z"
        fill="#fbc101" fill-rule="nonzero" />
    <path fill="#dba800" d="M152.52 142.95V76.7L95.15 43.58v66.24l28.68 16.57z" />
    <path fill="#aa8301" d="M123.83 159.51V93.26L66.46 60.14v66.25l28.69 16.56z" />
    <path fill="#dba800" d="M95.15 176.07v-66.25L37.77 76.7v66.25l28.69 16.56z" />
</svg>