<svg width="65" height="46" viewBox="0 0 65 46" fill="none" xmlns="http://www.w3.org/2000/svg">
<path d="M43.0716 23.0031C41.3817 23.0031 39.7918 22.1032 38.9318 20.6633L32.5022 10.0039L26.0826 20.6633C25.2127 22.1132 23.6228 23.0131 21.9329 23.0131C21.4829 23.0131 21.0329 22.9531 20.603 22.8231L6.90383 18.9034V36.7023C6.90383 38.1722 7.90377 39.4521 9.32368 39.8021L30.9423 45.2117C31.9622 45.4617 33.0322 45.4617 34.0421 45.2117L55.6808 39.8021C57.1007 39.4421 58.1006 38.1622 58.1006 36.7023V18.9034L44.4015 22.8131C43.9715 22.9431 43.5215 23.0031 43.0716 23.0031ZM64.3302 11.7838L59.1805 1.50447C58.8705 0.884509 58.2006 0.524531 57.5106 0.614525L32.5022 3.80432L41.6716 19.0134C42.0516 19.6433 42.8116 19.9433 43.5215 19.7433L63.3103 14.0937C64.3002 13.8037 64.7802 12.7038 64.3302 11.7838ZM5.8239 1.50447L0.674222 11.7838C0.214251 12.7038 0.70422 13.8037 1.68416 14.0837L21.4729 19.7333C22.1829 19.9333 22.9428 19.6333 23.3228 19.0034L32.5022 3.80432L7.48379 0.614525C6.79384 0.534531 6.13388 0.884509 5.8239 1.50447Z" fill="white"/>
</svg>
