<svg width="44" height="52" viewBox="0 0 44 52" fill="none" xmlns="http://www.w3.org/2000/svg">
<path d="M0 46.4286C0 49.0313 2.11161 51.1429 4.71429 51.1429H39.2857C41.8884 51.1429 44 49.0313 44 46.4286V19.7143H0V46.4286ZM31.4286 27.1786C31.4286 26.5304 31.9589 26 32.6071 26H36.5357C37.1839 26 37.7143 26.5304 37.7143 27.1786V31.1071C37.7143 31.7554 37.1839 32.2857 36.5357 32.2857H32.6071C31.9589 32.2857 31.4286 31.7554 31.4286 31.1071V27.1786ZM31.4286 39.75C31.4286 39.1018 31.9589 38.5714 32.6071 38.5714H36.5357C37.1839 38.5714 37.7143 39.1018 37.7143 39.75V43.6786C37.7143 44.3268 37.1839 44.8571 36.5357 44.8571H32.6071C31.9589 44.8571 31.4286 44.3268 31.4286 43.6786V39.75ZM18.8571 27.1786C18.8571 26.5304 19.3875 26 20.0357 26H23.9643C24.6125 26 25.1429 26.5304 25.1429 27.1786V31.1071C25.1429 31.7554 24.6125 32.2857 23.9643 32.2857H20.0357C19.3875 32.2857 18.8571 31.7554 18.8571 31.1071V27.1786ZM18.8571 39.75C18.8571 39.1018 19.3875 38.5714 20.0357 38.5714H23.9643C24.6125 38.5714 25.1429 39.1018 25.1429 39.75V43.6786C25.1429 44.3268 24.6125 44.8571 23.9643 44.8571H20.0357C19.3875 44.8571 18.8571 44.3268 18.8571 43.6786V39.75ZM6.28571 27.1786C6.28571 26.5304 6.81607 26 7.46429 26H11.3929C12.0411 26 12.5714 26.5304 12.5714 27.1786V31.1071C12.5714 31.7554 12.0411 32.2857 11.3929 32.2857H7.46429C6.81607 32.2857 6.28571 31.7554 6.28571 31.1071V27.1786ZM6.28571 39.75C6.28571 39.1018 6.81607 38.5714 7.46429 38.5714H11.3929C12.0411 38.5714 12.5714 39.1018 12.5714 39.75V43.6786C12.5714 44.3268 12.0411 44.8571 11.3929 44.8571H7.46429C6.81607 44.8571 6.28571 44.3268 6.28571 43.6786V39.75ZM39.2857 7.14286H34.5714V2.42858C34.5714 1.56429 33.8643 0.857147 33 0.857147H29.8571C28.9929 0.857147 28.2857 1.56429 28.2857 2.42858V7.14286H15.7143V2.42858C15.7143 1.56429 15.0071 0.857147 14.1429 0.857147H11C10.1357 0.857147 9.42857 1.56429 9.42857 2.42858V7.14286H4.71429C2.11161 7.14286 0 9.25447 0 11.8571V16.5714H44V11.8571C44 9.25447 41.8884 7.14286 39.2857 7.14286Z" fill="#111"/>
</svg>
