<svg width="50" height="40" viewBox="0 0 50 40" fill="none" xmlns="http://www.w3.org/2000/svg">
<path d="M45.8333 0.555542H4.16667C1.86632 0.555542 0 2.42186 0 4.72221V35.2778C0 37.5781 1.86632 39.4444 4.16667 39.4444H45.8333C48.1337 39.4444 50 37.5781 50 35.2778V4.72221C50 2.42186 48.1337 0.555542 45.8333 0.555542ZM15.2778 8.88887C18.342 8.88887 20.8333 11.3802 20.8333 14.4444C20.8333 17.5087 18.342 20 15.2778 20C12.2135 20 9.72222 17.5087 9.72222 14.4444C9.72222 11.3802 12.2135 8.88887 15.2778 8.88887ZM25 29.4444C25 30.3646 24.1319 31.1111 23.0556 31.1111H7.5C6.42361 31.1111 5.55556 30.3646 5.55556 29.4444V27.7778C5.55556 25.0173 8.1684 22.7778 11.3889 22.7778H11.8229C12.8906 23.2205 14.0538 23.4722 15.2778 23.4722C16.5017 23.4722 17.6736 23.2205 18.7326 22.7778H19.1667C22.3872 22.7778 25 25.0173 25 27.7778V29.4444ZM44.4444 24.8611C44.4444 25.243 44.1319 25.5555 43.75 25.5555H31.25C30.8681 25.5555 30.5556 25.243 30.5556 24.8611V23.4722C30.5556 23.0903 30.8681 22.7778 31.25 22.7778H43.75C44.1319 22.7778 44.4444 23.0903 44.4444 23.4722V24.8611ZM44.4444 19.3055C44.4444 19.6875 44.1319 20 43.75 20H31.25C30.8681 20 30.5556 19.6875 30.5556 19.3055V17.9167C30.5556 17.5347 30.8681 17.2222 31.25 17.2222H43.75C44.1319 17.2222 44.4444 17.5347 44.4444 17.9167V19.3055ZM44.4444 13.75C44.4444 14.1319 44.1319 14.4444 43.75 14.4444H31.25C30.8681 14.4444 30.5556 14.1319 30.5556 13.75V12.3611C30.5556 11.9792 30.8681 11.6667 31.25 11.6667H43.75C44.1319 11.6667 44.4444 11.9792 44.4444 12.3611V13.75Z" fill="#111"/>
</svg>
