<svg width="65" height="44" viewBox="0 0 65 44" fill="none" xmlns="http://www.w3.org/2000/svg">
<path d="M64.1134 20.3778C58.0878 8.62109 46.1589 0.666626 32.5 0.666626C18.8411 0.666626 6.90884 8.62664 0.886607 20.3789C0.63243 20.8817 0.5 21.4372 0.5 22.0006C0.5 22.5639 0.63243 23.1194 0.886607 23.6222C6.91217 35.3789 18.8411 43.3334 32.5 43.3334C46.1589 43.3334 58.0912 35.3734 64.1134 23.6211C64.3676 23.1183 64.5 22.5628 64.5 21.9994C64.5 21.4361 64.3676 20.8806 64.1134 20.3778ZM32.5 38C29.3355 38 26.2421 37.0616 23.6109 35.3035C20.9797 33.5454 18.9289 31.0466 17.7179 28.1229C16.5069 25.1993 16.19 21.9823 16.8074 18.8785C17.4248 15.7748 18.9486 12.9239 21.1863 10.6863C23.4239 8.44863 26.2748 6.92477 29.3785 6.30741C32.4822 5.69004 35.6993 6.0069 38.6229 7.2179C41.5466 8.4289 44.0454 10.4797 45.8035 13.1109C47.5616 15.742 48.5 18.8355 48.5 22C48.5011 24.1014 48.0879 26.1825 47.2842 28.1242C46.4805 30.0658 45.302 31.8301 43.816 33.316C42.3301 34.802 40.5658 35.9805 38.6242 36.7842C36.6825 37.5879 34.6014 38.0011 32.5 38ZM32.5 11.3333C31.5479 11.3466 30.602 11.4883 29.6878 11.7544C30.4414 12.7785 30.803 14.0387 30.7071 15.3066C30.6112 16.5744 30.0641 17.7659 29.165 18.665C28.2659 19.5641 27.0744 20.1112 25.8066 20.2071C24.5387 20.303 23.2785 19.9414 22.2544 19.1878C21.6713 21.3362 21.7765 23.6134 22.5554 25.6989C23.3343 27.7844 24.7475 29.5731 26.5962 30.8133C28.4449 32.0535 30.636 32.6828 32.8611 32.6125C35.0861 32.5422 37.2331 31.7759 38.9999 30.4215C40.7666 29.0671 42.0641 27.1927 42.7098 25.0622C43.3555 22.9317 43.3168 20.6524 42.5992 18.5451C41.8816 16.4377 40.5213 14.6085 38.7096 13.3148C36.8979 12.0211 34.7262 11.3281 32.5 11.3333Z" fill="white"/>
</svg>
