<svg width="65" height="44" viewBox="0 0 65 44" fill="none" xmlns="http://www.w3.org/2000/svg">
<path d="M59.1667 43.3334H5.83333C2.88778 43.3334 0.5 40.9456 0.5 38V6.00002C0.5 3.05446 2.88778 0.666687 5.83333 0.666687H59.1667C62.1122 0.666687 64.5 3.05446 64.5 6.00002V38C64.5 40.9456 62.1122 43.3334 59.1667 43.3334ZM14.7222 13.5556V9.11113C14.7222 8.3748 14.1252 7.7778 13.3889 7.7778H8.94444C8.20811 7.7778 7.61111 8.3748 7.61111 9.11113V13.5556C7.61111 14.2919 8.20811 14.8889 8.94444 14.8889H13.3889C14.1252 14.8889 14.7222 14.2919 14.7222 13.5556ZM25.3889 13.5556V9.11113C25.3889 8.3748 24.7919 7.7778 24.0556 7.7778H19.6111C18.8748 7.7778 18.2778 8.3748 18.2778 9.11113V13.5556C18.2778 14.2919 18.8748 14.8889 19.6111 14.8889H24.0556C24.7919 14.8889 25.3889 14.2919 25.3889 13.5556ZM36.0556 13.5556V9.11113C36.0556 8.3748 35.4586 7.7778 34.7222 7.7778H30.2778C29.5414 7.7778 28.9444 8.3748 28.9444 9.11113V13.5556C28.9444 14.2919 29.5414 14.8889 30.2778 14.8889H34.7222C35.4586 14.8889 36.0556 14.2919 36.0556 13.5556ZM46.7222 13.5556V9.11113C46.7222 8.3748 46.1252 7.7778 45.3889 7.7778H40.9444C40.2081 7.7778 39.6111 8.3748 39.6111 9.11113V13.5556C39.6111 14.2919 40.2081 14.8889 40.9444 14.8889H45.3889C46.1252 14.8889 46.7222 14.2919 46.7222 13.5556ZM57.3889 13.5556V9.11113C57.3889 8.3748 56.7919 7.7778 56.0556 7.7778H51.6111C50.8748 7.7778 50.2778 8.3748 50.2778 9.11113V13.5556C50.2778 14.2919 50.8748 14.8889 51.6111 14.8889H56.0556C56.7919 14.8889 57.3889 14.2919 57.3889 13.5556ZM20.0556 24.2222V19.7778C20.0556 19.0415 19.4586 18.4445 18.7222 18.4445H14.2778C13.5414 18.4445 12.9444 19.0415 12.9444 19.7778V24.2222C12.9444 24.9586 13.5414 25.5556 14.2778 25.5556H18.7222C19.4586 25.5556 20.0556 24.9586 20.0556 24.2222ZM30.7222 24.2222V19.7778C30.7222 19.0415 30.1252 18.4445 29.3889 18.4445H24.9444C24.2081 18.4445 23.6111 19.0415 23.6111 19.7778V24.2222C23.6111 24.9586 24.2081 25.5556 24.9444 25.5556H29.3889C30.1252 25.5556 30.7222 24.9586 30.7222 24.2222ZM41.3889 24.2222V19.7778C41.3889 19.0415 40.7919 18.4445 40.0556 18.4445H35.6111C34.8748 18.4445 34.2778 19.0415 34.2778 19.7778V24.2222C34.2778 24.9586 34.8748 25.5556 35.6111 25.5556H40.0556C40.7919 25.5556 41.3889 24.9586 41.3889 24.2222ZM52.0556 24.2222V19.7778C52.0556 19.0415 51.4586 18.4445 50.7222 18.4445H46.2778C45.5414 18.4445 44.9444 19.0415 44.9444 19.7778V24.2222C44.9444 24.9586 45.5414 25.5556 46.2778 25.5556H50.7222C51.4586 25.5556 52.0556 24.9586 52.0556 24.2222ZM14.7222 34.8889V30.4445C14.7222 29.7081 14.1252 29.1111 13.3889 29.1111H8.94444C8.20811 29.1111 7.61111 29.7081 7.61111 30.4445V34.8889C7.61111 35.6252 8.20811 36.2222 8.94444 36.2222H13.3889C14.1252 36.2222 14.7222 35.6252 14.7222 34.8889ZM46.7222 34.8889V30.4445C46.7222 29.7081 46.1252 29.1111 45.3889 29.1111H19.6111C18.8748 29.1111 18.2778 29.7081 18.2778 30.4445V34.8889C18.2778 35.6252 18.8748 36.2222 19.6111 36.2222H45.3889C46.1252 36.2222 46.7222 35.6252 46.7222 34.8889ZM57.3889 34.8889V30.4445C57.3889 29.7081 56.7919 29.1111 56.0556 29.1111H51.6111C50.8748 29.1111 50.2778 29.7081 50.2778 30.4445V34.8889C50.2778 35.6252 50.8748 36.2222 51.6111 36.2222H56.0556C56.7919 36.2222 57.3889 35.6252 57.3889 34.8889Z" fill="white"/>
</svg>
