<svg xmlns="http://www.w3.org/2000/svg" width="63.375" height="55.508" viewBox="0 0 277.95 243.45" shape-rendering="geometricPrecision" text-rendering="geometricPrecision" image-rendering="optimizeQuality" fill-rule="evenodd" clip-rule="evenodd"><defs><style>.prefix__fil0{fill:#fff}</style></defs><g id="prefix__Capa_x0020_1"><g id="prefix___2256569425248"><path class="prefix__fil0" d="M226.21 1.59H226.14L96.4.01h-.13a2.48 2.48 0 100 4.96l118.09 7.73h.02a2.48 2.48 0 012.48 2.48l8.53 130.17v.02a2.48 2.48 0 104.96 0v-.08L228.69 4.07a2.48 2.48 0 00-2.48-2.48z"/><path d="M99.87 99.4V55.31h5.85v38.92h21.68v5.17H99.87zm35.48 0V55.31h5.85V99.4h-5.85zm11.29 0l16.91-44.09h6.41l17.95 44.09h-6.64l-5.1-13.36H157.6l-4.78 13.36h-6.19zm12.69-18.1h15.03l-4.6-12.22c-1.39-3.72-2.43-6.78-3.16-9.21-.61 2.87-1.42 5.7-2.43 8.49l-4.83 12.94z" fill="#fff" fill-rule="nonzero"/><path class="prefix__fil0" d="M211.76 165.6a2.48 2.48 0 110 4.96h-.08l-162.64-1.59a2.48 2.48 0 01-2.48-2.48v-.08l-1.27-146.3V20a2.48 2.48 0 114.96 0l7.06 133.04v.03a2.48 2.48 0 002.48 2.48l151.94 10.05h.02zM209.43 20.64l5.69 108.19.01.26a2.48 2.48 0 11-4.96 0v-.02l-8.04-100.81a2.48 2.48 0 00-2.48-2.48h-.02l-51.53-4.55h-.04a2.48 2.48 0 01.22-4.95l.21.01 58.45 1.89h.08c1.33.04 2.4 1.14 2.4 2.48z"/><path class="prefix__fil0" d="M76.05 136.68L64.52 13.67a2.48 2.48 0 10-4.96 0l.01.23 5.38 131.93v.06a2.48 2.48 0 002.48 2.48l86.82 2.22h.06a2.48 2.48 0 100-4.96h-.02l-75.76-6.45a2.48 2.48 0 01-2.48-2.48v-.02zM222.71 188.68a2.48 2.48 0 110 4.96l-178.13 4.41c-.99.08-1.94.31-2.71.97l-37.8 29.83-.04.03c-.42.33-.96.53-1.54.53a2.48 2.48 0 01-2.48-2.48c0-.79.37-1.49.94-1.94l36.77-35.15.04-.04.04-.04a2.47 2.47 0 011.72-.69h.09l183.01-.39h.1zM237.76 195.94c.66 0 1.26.26 1.71.68l.04.04 37.58 35.66.03.03a2.48 2.48 0 01-1.65 4.33h-.08L37.6 233.05a2.48 2.48 0 110-4.96h.1l220.53.08c1 .04 1.48-1.06.95-1.75l-23.12-26.19c-.48-.45-.78-1.09-.78-1.81a2.48 2.48 0 012.48-2.48zM275.47 238.48a2.48 2.48 0 110 4.96h-.08l-257.61-2.42a2.48 2.48 0 110-4.96h.12l257.49 2.42h.08z"/></g></g></svg>