<?xml version="1.0" encoding="utf-8"?>
<!-- Uploaded to: SVG Repo, www.svgrepo.com, Generator: SVG Repo Mixer Tools -->
<svg fill="#000000" width="800px" height="800px" viewBox="0 0 24 24" version="1.1" xmlns="http://www.w3.org/2000/svg">
<title>logout</title>
<path d="M4 7.406v9.164c0 0.844 0.352 1.594 0.914 2.180 0.563 0.563 1.289 0.867 2.133 0.867h4.594v-1.898h-4.594c-0.633 0-1.125-0.516-1.125-1.148v-9.164c0-0.633 0.492-1.125 1.125-1.125h4.594v-1.922h-4.594c-0.844 0-1.57 0.328-2.133 0.891-0.563 0.586-0.914 1.313-0.914 2.156zM9.039 10.172v3.656c0 0.422 0.375 0.773 0.797 0.773h4.242v2.883c0 0.258 0.141 0.469 0.375 0.586 0.094 0.023 0.188 0.023 0.234 0.023 0.164 0 0.305-0.047 0.422-0.164l5.508-5.508c0.258-0.211 0.234-0.633 0-0.867l-5.508-5.484c-0.328-0.352-1.031-0.141-1.031 0.422v2.906h-4.242c-0.422 0-0.797 0.352-0.797 0.773z"></path>
</svg>