<svg xmlns="http://www.w3.org/2000/svg" width="72.02" height="30.819" viewBox="0 0 141.53 60.57" shape-rendering="geometricPrecision" text-rendering="geometricPrecision" image-rendering="optimizeQuality" fill-rule="evenodd" clip-rule="evenodd"><defs><style>.prefix__fil0,.prefix__fil1{fill:#fff}.prefix__fil0{fill-rule:nonzero}</style></defs><g id="prefix__Capa_x0020_1"><g id="prefix___2119741858080"><path class="prefix__fil0" d="M22.75 23.75l.16.28c.01-.06.03-.09.08-.12l.51-.29c.14.2.26.41.36.63l-.51.29c-.05.03-.09.03-.14.01l.16.28c.01-.06.03-.09.08-.12l1.09-.62c.05-.03.09-.03.14-.01l-.16-.28c-.01.06-.03.09-.08.12l-.5.28c-.13-.2-.25-.41-.36-.63l.5-.28c.05-.03.09-.03.15-.01l-.16-.28c0 .06-.03.09-.08.12l-1.09.62c-.06.03-.09.03-.15 0zm9.47-10.58c.04.05.12.33.11.42-.05.05-.31.12-.42.11a.795.795 0 01-.11-.42c.08-.05.28-.12.42-.11zm5.29 8.05c.05.04.15.31.15.4-.05.05-.29.15-.41.15a.879.879 0 01-.15-.4c.07-.05.26-.15.4-.15zm-14.2-.1c.04.05.11.33.1.42-.05.05-.31.11-.42.1-.06-.1-.1-.29-.1-.42.08-.04.28-.11.42-.09zM36.69 19c.08.38.34.46.53.42.45-.09.33-.74.66-.8.09-.02.16 0 .22.04.01.02.03.06.04.12.02.14-.03.26-.15.37.09.04.15.07.25.06.04-.11.04-.24.02-.36-.06-.31-.29-.41-.46-.37-.43.08-.25.72-.69.81-.07.01-.16 0-.22-.03a.383.383 0 01-.08-.16c-.04-.2.04-.35.21-.47v-.01c-.1-.01-.2-.02-.3.01-.03.08-.05.25-.03.38zm-.28-1.25c-.01-.03 0-.08.05-.1l.52-.21c.01 0 .02 0 .02.01l.13.32c.03.07.08.15.17.14-.03-.05-.06-.12-.09-.19l-.12-.29c0-.01-.01-.02.01-.02l.42-.17c.06-.02.1-.03.12-.03 0 0 .02.03.04.09.14.33.08.42-.05.54.12-.01.26-.06.33-.09l-.33-.83c-.01.04-.03.08-.09.11l-1.17.47c-.07.03-.11.01-.15-.01l.35.85c.09-.01.25-.05.38-.1-.2.01-.35-.04-.48-.36l-.05-.11zm-.5-.76c0-.06.02-.09.07-.12l1.02-.64c.03-.02.05-.04.09-.04l.09.14c.11.17.06.26-.06.43.02-.01.03-.02.07-.04.05-.03.21-.15.25-.19-.02-.01-.04-.01-.14-.18l-.38-.61c-.1-.16-.1-.18-.09-.2-.05.01-.23.11-.28.14-.03.02-.05.03-.06.05.2-.04.3-.04.41.13l.1.15c-.02.03-.05.04-.08.06l-1.02.64c-.05.03-.09.04-.14.01l.17.27zm.22-2.17l-.29-.3c.01.05 0 .09-.05.13l-.92.87c-.04.04-.09.04-.13.04l.22.23c-.01-.05 0-.09.05-.13l.39-.37c.01-.01.02-.01.03 0l.06.06c.06.06.05.13.01.25l-.14.44c-.03.07-.03.1-.05.12l.2.21a.503.503 0 01.01-.27l.17-.61c.12.05.33.11.51-.06.17-.16.16-.37-.07-.61zm-.11.49c-.15.14-.33.14-.5-.04-.04-.04-.05-.05-.04-.06l.37-.35c.08-.08.12-.09.12-.09.02.02.03.04.06.06.18.19.11.36-.01.48zm-1.05-1.57l-.18-.06c0 .02-.01.06-.03.08-.01.01-.03.04-.05.05l-.63.47-.4.27c-.08.05-.13.05-.2.04l.22.16c-.01-.02 0-.04.01-.05.01-.01.04-.04.07-.06l.27-.22c.03.02.1.06.21.14.11.08.2.15.24.18l-.09.34c-.02.07-.06.11-.09.12l.26.18c-.03-.07-.03-.11.01-.23l.39-1.4zm-.44.91c-.05-.03-.14-.09-.22-.15-.08-.06-.15-.11-.18-.14l.02-.02.59-.45-.21.75zm-4.74-.73c.39-.03.49-.29.47-.48-.04-.46-.7-.41-.73-.74-.01-.09.02-.16.06-.21.02-.01.06-.02.12-.03.14-.01.26.05.36.19.06-.08.08-.14.09-.24-.1-.05-.23-.07-.36-.05-.32.03-.43.24-.42.42.04.44.7.33.73.77 0 .07-.01.16-.05.22-.02.02-.09.05-.17.05-.21.02-.35-.08-.45-.26h-.01c-.02.09-.04.2-.02.3.08.04.24.08.37.07zm-.57 0c-.08-.02-.1-.05-.17-.15l-.83-1.2-.16.1c.01.01.03.04.04.07.01.02.01.05.01.08l-.04.79-.05.48c-.01.09-.05.14-.1.18l.26-.07a.055.055 0 01-.03-.05c-.01-.02-.01-.05-.01-.09l.01-.35c.03-.01.11-.04.24-.07.13-.03.24-.05.29-.06l.2.29c.04.06.04.12.03.14l.3-.08zm-.84-.36c-.1.03-.18.04-.22.06v-.03l.03-.74.44.64c-.06.02-.16.05-.25.07zm-.94.94l.29-.14c-.06-.01-.09-.03-.11-.09l-.53-1.13c-.03-.05-.02-.09.01-.14l-.29.14c.06.01.09.03.12.09l.53 1.13c.03.06.03.1 0 .14zm-.31.13c-.02-.08-.11-.24-.17-.33.09.27.03.38-.12.49-.3.2-.63.07-.85-.26-.14-.2-.18-.4-.17-.59.03-.05.09-.13.18-.19.1-.07.25-.12.43-.06.02-.07.02-.17-.02-.26-.1.02-.25.07-.37.15-.36.25-.44.72-.15 1.14.24.35.62.44.96.2.15-.1.23-.19.3-.3zm-1.64.43l.25.25-.08-.01-1.5-.13.1.09.86.9c.05.05.06.09.05.16l.2-.2c-.07.02-.11 0-.16-.04l-.42-.41-.28-.29.06.01 1.48.12-.97-1.02c-.05-.05-.06-.09-.05-.16l-.2.2c.08-.02.12 0 .17.04l.5.48zm-.9 1.96c-.02.03-.06.05-.1.02l-.47-.3c-.01-.01-.01-.01-.01-.02l.18-.29c.04-.06.08-.15.01-.22-.03.06-.06.12-.1.19l-.17.27c0 .01-.01.01-.02.01l-.39-.24c-.06-.04-.09-.07-.1-.08 0 0 .01-.03.05-.08.19-.3.3-.32.47-.27-.08-.09-.2-.18-.26-.21l-.48.76c.04-.01.08-.03.14.01l1.07.67c.07.04.07.09.07.12l.49-.78a1.39 1.39 0 00-.31-.24c.12.16.17.31-.01.6l-.06.1zm-.4.96l.11-.3c-.05.03-.09.04-.14.02l-1.17-.44c-.06-.02-.08-.05-.1-.11l-.11.3c.05-.03.09-.04.14-.02l1.17.44c.06.02.08.05.1.11zm-.14.4c-.07-.04-.24-.1-.36-.13.25.13.29.26.25.45-.08.35-.41.48-.8.4a.921.921 0 01-.53-.32.735.735 0 010-.26c.03-.12.1-.26.27-.34a.334.334 0 00-.18-.17c-.07.09-.14.22-.17.37-.1.43.17.82.67.93.42.09.75-.11.84-.51.04-.18.03-.3.01-.42zm13.43 6.19c.21-.33.06-.57-.1-.67-.39-.24-.74.32-1.03.14a.3.3 0 01-.14-.18c0-.02.02-.06.05-.12.08-.12.2-.18.36-.17a.438.438 0 00-.14-.22c-.1.06-.19.14-.26.26-.17.27-.06.49.09.59.37.23.68-.36 1.05-.13.06.04.12.11.14.17 0 .03-.02.1-.06.17-.11.18-.27.23-.47.21.06.08.13.15.23.2.08-.04.2-.15.27-.26zm-1.05 1.14c-.03.03-.07.04-.11 0l-.4-.38c-.01-.01-.01-.02 0-.02l.24-.25c.05-.05.11-.13.05-.21-.04.05-.09.11-.14.16l-.22.23c0 .01-.01.01-.02 0l-.33-.31a.405.405 0 01-.08-.1s.02-.03.06-.07c.25-.26.35-.25.52-.17-.06-.11-.16-.21-.21-.26l-.62.65c.04-.01.08-.01.13.04l.91.87c.06.05.05.1.05.14l.64-.66c-.04-.08-.15-.21-.25-.3.09.18.1.34-.13.58l-.08.08zm-1.07 0c-.28-.35-.7-.35-1.11-.03l-.34.28c.04 0 .08 0 .13.05l.79.99c.05.06.04.1.03.14l.37-.29c.38-.31.42-.77.13-1.14zm-.17 1.06c-.14.11-.22.11-.33-.03l-.62-.78a.945.945 0 01-.07-.1s.03-.03.08-.07c.37-.29.75-.22 1.01.11.24.3.22.64-.06.87zm-.93.52l-1.07-1-.13.13c.02.01.04.04.06.06.01.02.02.04.02.07l.12.78.06.47c.01.09-.01.14-.06.19l.25-.12c-.03-.01-.03-.02-.04-.04a.2.2 0 01-.02-.09l-.07-.34c.03-.02.1-.06.23-.12.12-.06.22-.11.27-.13l.26.24c.05.05.07.1.06.14l.28-.14c-.08-.01-.12-.03-.2-.12zm-.7-.06c-.09.05-.16.08-.2.1l-.01-.03-.12-.73.57.53c-.06.03-.15.08-.23.12zm-.88.16c-.1-.44-.48-.62-.98-.5l-.43.1c.04.01.08.04.09.1l.28 1.23c.02.08-.01.11-.03.14l.46-.1c.48-.11.72-.51.62-.96zm-.61.88c-.18.04-.24.01-.28-.16l-.22-.97c-.02-.1-.01-.12-.01-.12s.03-.02.09-.03c.46-.1.77.13.86.54.09.38-.08.67-.44.75zm-1.5.28l.32-.02c-.05-.03-.07-.06-.08-.12l-.09-1.25c-.01-.06.01-.1.05-.13l-.32.02c.05.03.07.06.07.12l.09 1.25c.01.06-.01.1-.06.13zm-.88-.72l-.05.35-.04-.07-.81-1.27v.14l-.18 1.23c-.01.07-.04.1-.1.14l.28.04c-.06-.05-.07-.09-.07-.16l.06-.58.05-.4.02.05.81 1.24.21-1.39c.01-.07.04-.11.1-.14l-.28-.04c.06.05.08.09.07.16l-.08.69zm-1.98.31l.29.12c-.05-.06-.05-.11-.05-.23l.05-1.46-.19-.01c0 .02 0 .06-.01.09a.21.21 0 01-.04.06l-.51.61-.32.36c-.06.07-.12.08-.18.08l.25.1c-.01-.02 0-.04 0-.06.01-.02.03-.05.05-.08l.22-.28.24.08c.12.05.23.1.27.12l-.01.35c0 .07-.03.12-.06.13zm-.17-.67c-.09-.04-.17-.07-.21-.09l.02-.02.46-.57-.03.78c-.06-.02-.16-.06-.25-.09zm-2.33-.72c-.01-.03 0-.07.03-.13l.39-.5.17-.2.01-.02-.17 1.14.97-.61-.02.03-.4.78c-.03.07-.08.1-.12.09l.26.18c-.01-.05-.02-.09.02-.17l.63-1.24-1.11.69.19-1.31-.43.51-.49.55c-.03.04-.08.07-.14.07l.2.14zm-1.09-.94c.24.26.55.23.83-.02.38-.34.43-.39.59-.51.05-.04.08-.05.14-.04l-.17-.19c.01.06-.01.09-.05.14-.14.15-.19.2-.6.56-.19.18-.44.22-.64.01-.19-.21-.12-.41.07-.58l.64-.57c.04-.04.09-.05.14-.04l-.22-.24c.01.06-.01.1-.05.14l-.64.57c-.29.26-.29.51-.05.79z"/><path class="prefix__fil1" d="M30.22 14.55a5.86 5.86 0 00-5.8 5.91c.03 3.22 2.69 5.83 5.91 5.8 3.22-.03 5.83-2.69 5.8-5.91-.03-3.23-2.69-5.83-5.91-5.8zm3.66 7.89l-1.89-.36.39 1.89-1.46-1.26-.6 1.83-.64-1.82-1.44 1.29.36-1.9-1.89.39 1.26-1.46-1.83-.6 1.82-.64-1.29-1.44 1.89.36-.4-1.89 1.46 1.26.6-1.83.64 1.82 1.44-1.29-.36 1.9 1.89-.4-1.26 1.46 1.83.6-1.82.64 1.29 1.44z"/><path class="prefix__fil1" d="M29.51 0C13.14.42 0 13.81 0 30.28s13.14 29.86 29.5 30.28h1.59c16.36-.42 29.5-13.82 29.5-30.28C60.59 13.81 47.45.41 31.08 0h-1.56zM7.98 18.83c-.2-.51-.6-.92-1.17-1.18l-.03-.01c-.54-.24-1.06-.23-1.52 0-.47.23-.86.67-1.14 1.31l-.62 1.38.34-.2c.03-.02.07-.03.1-.04.04 0 .08 0 .13.02l2.91 1.31c.06.03.1.06.12.09.02.03.03.07.04.1l.08.39c.22-.49.45-.99.67-1.49.26-.59.27-1.18.08-1.67zm50.23 17.5l-.18-.36a.223.223 0 00-.21-.14l-2.81-.46c-.43-.07-.71-.26-.88-.52-.21-.31-.24-.7-.18-1.06l.02-.13.25.04.01.1c.02.21.1.4.23.54.14.14.36.25.68.3l2.8.47c.05.01.1.01.13 0 .04-.01.07-.04.11-.07l.28-.28-.26 1.59zm-.6 2.09l-.12-.38c-.01-.05-.03-.09-.06-.11-.02-.03-.06-.05-.11-.07l-2.07-.68c-.27-.09-.52-.11-.73-.04-.2.07-.36.25-.46.55v.01c-.1.3-.06.56.07.76.13.21.37.37.66.47.64.21 1 .33 1.28.41.27.08.44.13.69.19.06.01.11.02.14.02.03-.01.07-.02.11-.05l.32-.24-.45 1.38-.12-.38c-.02-.05-.03-.08-.06-.11a.49.49 0 00-.13-.08c-.47-.2-.63-.25-1.86-.65l-.03-.01c-.48-.16-.84-.42-1.04-.75-.2-.33-.25-.73-.1-1.18.16-.48.39-.8.71-.97.32-.17.73-.18 1.22-.01l2.06.68c.05.02.09.02.13.02a.27.27 0 00.11-.05l.32-.24-.5 1.54zM40.26 55.77c-.07.19-.19.36-.31.41-.11.05-.33.01-.51-.06-.19-.08-.36-.19-.41-.31-.05-.12-.01-.32.06-.51.08-.19.2-.36.31-.41.12-.05.33-.01.51.06.19.08.37.19.41.31.05.12.01.33-.06.51zm-18.79.05c-.05.12-.21.24-.4.33-.18.08-.39.13-.51.08-.11-.04-.24-.21-.33-.39-.08-.18-.13-.39-.09-.51.04-.12.22-.25.4-.33.18-.08.39-.13.5-.09.12.04.24.21.33.4.08.18.13.39.09.51zm-10.48-9.98c-.06.36-.29.69-.72.99l-1.78 1.24a.24.24 0 00-.1.1c-.02.03-.02.08-.02.13l-.01.4-.92-1.33.38.13c.05.02.09.03.13.02.04 0 .07-.02.12-.05l1.78-1.25c.25-.17.43-.37.48-.6.04-.2 0-.41-.17-.66-.18-.25-.39-.37-.62-.4-.26-.03-.54.06-.81.25-.55.38-.86.61-1.09.77-.23.17-.36.28-.56.44-.05.04-.08.07-.1.11-.02.03-.03.07-.03.12v.4l-.83-1.19.38.13c.05.02.09.02.12.02.04 0 .08-.03.14-.06.22-.13.36-.22.58-.37.24-.16.53-.36 1.06-.73.41-.29.83-.43 1.22-.4.4.03.76.23 1.04.64.29.41.41.79.35 1.15zm-5.75-1.15l1.6-3.7-.47.24-1.55.81c-.05.03-.1.06-.12.09-.03.04-.04.09-.04.16l-.03.49-.72-1.46.37.22c.06.03.11.05.15.06.04 0 .1-.01.15-.04 1.17-.57 2.35-1.11 3.52-1.67l-1.52 3.57.59-.29 1.31-.68c.05-.03.1-.06.13-.1a.34.34 0 00.04-.16l.03-.49.72 1.46-.37-.22a.368.368 0 00-.16-.05c-.04 0-.09.01-.15.04l-2.84 1.35-.63.38zm-1.41-4.57l-.12.38-.45-1.34-.49-1.62.13-.03c.05-.01.1-.03.14-.04.04-.02.08-.04.12-.07l2.1-1.41-1.07-.13-1.15-.12c-.04 0-.09-.01-.13 0-.05 0-.09.01-.11.01-.04.01-.07.03-.09.07-.03.05-.05.12-.05.2l-.03.94L2.15 35l.24.1c.15.06.3.08.44.1 1.33.13 2.73.37 4.05.55l-3.4 2.37a.64.64 0 00-.15.14c-.04.06-.07.13-.07.24v.52l.26.19c.04.03.08.05.11.06.04 0 .08 0 .13-.02l3.01-1c.05-.02.09-.04.12-.06.02-.03.04-.06.06-.11l.12-.38.13.38.38 1.15-.32-.23a.208.208 0 00-.12-.05c-.04-.01-.08 0-.13.02l-3.01 1c-.05.02-.09.04-.12.06-.02.02-.04.06-.06.11zm-2.05-8.48l.12-.01c.11-.01.29-.02.49-.01.14.01.28.02.41.05l.09.02.02.19-.08.04c-.18.08-.31.16-.39.31-.08.16-.11.41-.07.84.01.06.01.11.02.14h.2l1.06-.09-.06-.71-.03-.28c-.01-.09-.03-.17-.05-.24l-.04-.18.18.02c.18.02.28.11.35.23.06.11.08.23.09.34l.06.78 1.32-.11c.03 0 .04-.01.05-.02.01-.01.01-.03.01-.04l-.03-.31c-.03-.4-.12-.65-.26-.81-.13-.16-.32-.24-.54-.3l-.09-.02-.02-.23.13-.01a4.954 4.954 0 011.03.03l.1.02.24 2.81-.26-.31c-.02-.03-.05-.05-.08-.08-.03-.02-.08-.02-.15-.02l-3.18.26c-.06.01-.1.02-.13.04s-.05.05-.07.09l-.21.34-.23-2.79zm.39-6.69c.03-.18.08-.35.14-.5.06-.15.15-.29.24-.41l.05-.07.08.03c.13.04.24.09.33.16.09.07.17.15.26.25l.12.14-.17.07c-.17.07-.31.16-.41.27a.78.78 0 00-.18.39c-.02.1-.01.19-.01.24.04.05.09.09.14.12.07.04.15.07.25.09.32.05.57-.24.83-.55.36-.43.75-.89 1.44-.78.3.05.63.21.83.55.16.25.23.6.16 1.06a2.125 2.125 0 01-.41.93l-.04.05-.07-.01c-.14-.02-.29-.05-.41-.1-.13-.05-.25-.1-.36-.16l-.08-.04.03-.18.08-.02c.23-.06.42-.16.55-.29a.98.98 0 00.26-.55c.01-.07.01-.14.01-.2-.01-.06-.02-.11-.02-.15a.707.707 0 00-.18-.12.791.791 0 00-.23-.08c-.49-.08-.77.27-1.06.61-.33.4-.66.8-1.28.7-.28-.05-.56-.21-.74-.49-.14-.23-.21-.54-.15-.94zm.97-3.62l.14.38c.02.05.04.09.06.11.03.02.07.04.12.06l3.07.83c.05.02.1.02.13.01a.3.3 0 00.11-.06l.31-.25-.1.38-.32 1.17-.14-.38c-.02-.05-.04-.08-.06-.11a.666.666 0 00-.12-.06l-3.06-.83c-.05-.01-.1-.02-.13-.01a.3.3 0 00-.11.06l-.31.25.42-1.56zm14.9-14.41l-.97-1.46c-.04-.05-.07-.1-.11-.12a.369.369 0 00-.17-.03l-.48.02 1.38-.87-.18.39c-.03.06-.04.11-.03.16 0 .05.02.09.05.15.7 1.07 1.36 2.24 2.03 3.33l-3.72-1.14.35.55.82 1.23c.04.05.07.09.11.12.04.02.09.03.16.03l.49-.02-1.37.87.18-.39c.03-.06.04-.11.04-.16s-.02-.09-.05-.14l-1.64-2.69-.44-.59 3.85 1.21-.28-.44zm5.21-3.89c.26-.49.7-.85 1.29-1 .17-.04.35-.06.52-.07.2-.01.4.01.55.03l.1.02v.1c.01.13 0 .25-.04.36-.03.13-.1.25-.16.35l-.07.11-.11-.08c-.15-.12-.31-.18-.46-.21-.18-.04-.36-.02-.51.02-.11.03-.21.07-.29.11-.09.05-.17.1-.22.14-.09.21-.15.44-.17.69-.01.24.01.49.07.76v.01c.12.45.33.82.61 1.04.28.22.64.31 1.04.2.21-.05.36-.13.46-.26.1-.14.15-.36.17-.68v-.1l.23-.06.03.13c.04.15.08.35.1.54.02.18.04.34.03.45l-.01.06-.05.03a2.745 2.745 0 01-1 .47l-.01.01c-.54.13-1.03.06-1.42-.18-.39-.25-.68-.66-.83-1.21V4.8c-.17-.66-.1-1.26.15-1.74zm4.95-1.5l-.3.26c-.04.03-.07.07-.08.1-.01.03-.02.08-.01.13l.32 3.16c0 .05.02.1.04.13s.05.06.1.08l.35.2-.4.04-1.21.12.3-.27c.04-.03.07-.07.08-.1.01-.04.02-.08.01-.13l-.33-3.16a.332.332 0 00-.04-.13.209.209 0 00-.1-.08l-.35-.2 1.61-.16zm5.07 3.99c.06-.02.11-.05.14-.09a.26.26 0 00.06-.14l.69-3.07.09-.74 1.93 3.55.1-.52.32-1.72c.01-.06.01-.12 0-.16-.01-.04-.04-.08-.1-.13l-.37-.32 1.6.33-.4.16c-.07.03-.11.05-.14.09a.26.26 0 00-.06.14c-.3 1.26-.58 2.54-.86 3.81l-1.88-3.4-.13.64-.27 1.44c-.01.07-.02.12 0 .16.01.04.04.08.1.13l.37.32-1.59-.33.4-.16zm18.9 7.38c.04-.03.07-.07.09-.1.01-.03.01-.07.01-.11v-.4l1.63 2.28-.11.08c-.09.06-.24.16-.41.26-.12.07-.25.12-.38.17l-.09.03-.11-.15.05-.08c.12-.16.2-.3.18-.47-.01-.18-.12-.41-.37-.76a.623.623 0 00-.09-.12l-.03.02c-.04.02-.09.05-.14.09l-.86.62.41.59c.06.08.12.16.17.22.05.07.11.13.16.18l.12.13-.16.08c-.16.07-.3.05-.42-.02a.99.99 0 01-.25-.25l-.45-.64-1.08.77c-.02.01-.03.03-.04.04 0 .01.01.02.01.04l.18.25c.23.33.44.5.64.57.19.07.39.04.62-.02l.09-.03.13.19-.1.07c-.14.1-.31.21-.47.29-.16.09-.32.17-.44.21l-.09.03-1.64-2.3.38.13c.03.01.07.02.11.02.03 0 .08-.02.14-.06l2.6-1.85zm2.03 8.88c.45-.19.51-.64.57-1.08.07-.52.14-1.03.71-1.27.26-.11.59-.12.89.03.24.12.46.35.62.72.07.17.12.34.15.5.03.16.03.32.01.48l-.01.09-.08.02c-.13.04-.25.05-.36.04-.11-.01-.22-.03-.35-.07l-.18-.05.11-.14c.11-.15.18-.3.21-.44a.8.8 0 00-.05-.43.9.9 0 00-.12-.21.628.628 0 00-.19-.03.69.69 0 00-.26.06c-.29.13-.35.5-.41.91-.08.55-.17 1.16-.81 1.43-.28.12-.65.15-1-.02-.26-.13-.51-.38-.69-.81-.06-.15-.11-.33-.13-.5-.03-.2-.03-.39-.01-.51l.01-.07.06-.03c.13-.06.27-.1.4-.13s.26-.04.39-.05l.09-.01.07.17-.05.06c-.16.18-.27.36-.32.55-.04.18-.02.38.07.6.03.07.06.12.1.18.04.05.07.09.1.11.07.01.14.01.22.01.08-.01.17-.03.24-.05zM26.83 58.42c-.18-.03-.36-.09-.49-.18-.14-.09-.18-.16-.17-.2l.51-3.22.02-.07-1.74.19v.1l.4.01c.19.03.34.11.44.22.09.1.13.21.11.32l-.37 2.35c-.01.03-.06.09-.17.13a.99.99 0 01-.35.06h-.08l-.04-.01-.03.03c-.03.03-.04.05-.06.06l-.08.04-.24.11.9.14c.42.07.84.14 1.27.2h.03l.03-.03c.03-.03.04-.05.06-.06.01-.01.03-.02.06-.03l.33-.15-.34-.01zm6.31-3.45v-.01l-2.36.1h-.04l-.01.05c-.03.1-.06.23-.07.38-.02.2-.03.41-.03.51v.21l.16-.18c.14-.16.23-.26.32-.32s.2-.09.41-.1l1.03-.04c-.1.24-.38.88-.7 1.55-.27.57-.5 1.02-.68 1.33-.03.05-.06.1-.1.16-.04.05-.28.29-.28.29l-.06.06.9-.12.14-.32.03-.06c.01-.02.02-.05.03-.08.1-.25.38-.95.65-1.61l.2-.5c.16-.4.28-.73.34-.9l.04-.12.04-.11h.03l.04-.14-.05-.01zm2.71 2.14c-.04-.29-.15-.52-.33-.67a.873.873 0 00-.51-.21c.11-.11.19-.22.25-.33a.92.92 0 00.1-.54.738.738 0 00-.38-.57 1.04 1.04 0 00-.51-.12c-.06 0-.11 0-.16.01-.26.03-.47.13-.64.29-.21.19-.3.44-.31.61l-.02.24.16-.18c.12-.14.24-.24.37-.31.11-.05.21-.09.35-.1.15-.02.27.01.36.08.08.07.13.17.15.29l.01.02c.04.41-.29.66-.68.94l-.44.32.45-.14c.13-.04.26-.05.33-.06h.01c.21-.02.41.02.54.14.14.12.23.3.27.54.02.16.01.31-.01.45-.03.11-.07.19-.1.26-.03.02-.12.07-.33.09-.19.02-.32.01-.46-.04-.16-.07-.31-.2-.48-.4l-.14-.18v.23c-.01.13 0 .26.01.37l.01.03c.01.05.02.12.03.18.02.09.05.18.1.25l.02.02.03.01c.12.03.21.05.3.05.03 0 .05.01.08.01.07 0 .15-.01.27-.02.41-.05.76-.23 1-.52.25-.29.37-.69.32-1.06zm-5.94-1.71c-.2-.33-.52-.51-.93-.54h-.07c-.32 0-.61.11-.84.33-.26.24-.43.58-.45.92-.02.34.07.63.25.85.19.23.49.37.8.39h.06a1.209 1.209 0 00.59-.15c-.13.35-.31.63-.56.85-.28.25-.64.42-1.09.52l-.18.03.15.11c.03.03.11.05.16.06.04.01.11.02.18.02h.03c.29 0 .98-.15 1.51-.72.38-.41.6-.96.64-1.62.02-.4-.05-.78-.22-1.05zm-1.33-.17c.03-.01.05-.01.08-.01h.11c.24.01.41.12.53.31.13.2.18.5.16.85-.01.2-.02.29-.03.36v.02c-.05.03-.12.06-.2.08-.09.02-.19.03-.28.02a.63.63 0 01-.49-.27c-.12-.16-.17-.38-.16-.65.02-.34.19-.57.3-.71zm30.18-26.61l-.2.44c-.03.07-.06.11-.1.13-.04.02-.08.04-.15.04l-1.74.19-.52.04 2.84-2.86-.73.12-3.14.21c-.06.01-.11 0-.16-.02a.3.3 0 01-.12-.11l-.15-.18.09-.29c.02-.08.05-.13.09-.17.05-.05.13-.1.25-.18.22-.24 2.69-1.78 3.18-2.1l-.39-.65-.11.12c-.01.01-.03.02-.06.03-.02.01-.05.02-.08.03-.02 0-.05.01-.08.01h-.07l-1.99-.16-1.2-.15a.516.516 0 01-.22-.07.57.57 0 01-.14-.13l-.37-.5.4 1.66.15-.35s.01 0 .03-.01c.01 0 .04 0 .07-.01h.12l.8.04c.03.11.08.29.14.53.06.26.11.5.13.64l-.67.45c-.05.04-.1.05-.14.06-.04.01-.08 0-.1-.01l-.24-.12.29 1.2.13 1.6.21-.44c.03-.07.06-.11.1-.13.04-.02.09-.04.15-.04l1.46-.16.66-.05-2.72 2.77c1.24-.08 2.67-.25 3.89-.26.07-.01.12 0 .16.02a.4.4 0 01.12.11l.27.34-.14-1.63zm-1.82-4.75l-1.18.78c-.04-.14-.08-.31-.12-.47-.03-.11-.05-.21-.07-.3l-.02-.1 1.39.09zm-5.25 18.66c.07-.04.12-.06.18-.07.07-.01.17.01.31.02.86-.02 2.82.33 3.79.45l.12-.75-.16.01c-.02 0-.04 0-.07-.01a.689.689 0 01-.08-.03c-.02-.01-.04-.02-.07-.04-.01-.01-.04-.03-.05-.05l-1.42-1.41-.82-.88a.52.52 0 01-.13-.2c-.02-.06-.02-.12-.02-.19l.04-.62-.77 1.52.34-.17c.01 0 .02.01.03.01.01.01.03.02.06.04s.06.05.1.08l.58.54c-.04.1-.12.27-.23.49-.12.24-.24.45-.31.58l-.81-.09a.392.392 0 01-.14-.04.154.154 0 01-.07-.07l-.11-.25-.6 1.19-.84 1.25.43-.22c.07-.03.12-.05.16-.04.04 0 .09.03.15.06l1.24.79.54.36-3.86.46c1.06.74 2.15 1.48 3.2 2.23.05.04.08.07.11.11.02.04.03.09.03.16v.43l.91-1.35-.44.22c-.07.03-.12.05-.16.04-.04 0-.09-.02-.14-.06l-1.47-.94-.44-.29 4.01-.45-.65-.36-2.58-1.8c-.05-.04-.09-.07-.11-.11a.38.38 0 01-.03-.16l.01-.25.24-.16zm2.13-1.05c.05-.1.1-.19.14-.27l.04-.09 1 .97-1.4-.17c.06-.14.14-.3.21-.44zM4.26 29.13c.06-.06.16-.12.29-.2l1.15-.58c.07-.04.11-.06.12-.06h.13L6 26.96l-.25.38c-.06.1-.11.17-.18.23-.07.06-.15.12-.28.19l-1.28.69c-.06-.13-.16-.28-.28-.42a1.14 1.14 0 00-.79-.34c-.33-.01-.61.1-.8.34-.18.22-.28.55-.3 1l-.05 1.46.25-.32c.03-.03.05-.06.08-.08.03-.02.07-.03.13-.03l3.2.12c.05 0 .09.01.12.03.03.02.06.05.08.08l.22.34.06-1.62-.25.32c-.03.03-.05.06-.08.08-.03.02-.07.03-.13.03l-1.28-.05v-.12c0-.07.03-.12.07-.16zm-.52.26l-1.2-.04c-.13-.01-.2-.01-.25-.02v-.12c.01-.28.1-.46.24-.57.14-.11.32-.14.51-.14h.01c.22.01.39.08.51.21s.18.33.17.6v.08zm28.6-27.33c-.3-.38-.76-.61-1.36-.6-.56.01-1.03.26-1.36.65-.36.42-.56.99-.55 1.57.01.55.17 1.09.52 1.47.31.33.75.54 1.33.54.54-.01 1-.27 1.33-.67.35-.42.56-.99.55-1.56 0-.53-.16-1.03-.46-1.4zm-.28 1.68c0 .3-.03.55-.1.75-.07.2-.17.37-.32.53-.1.04-.17.07-.26.08-.09.02-.17.03-.28.03-.37 0-.68-.15-.91-.43-.23-.29-.37-.73-.38-1.3 0-.28.03-.52.09-.73.06-.2.16-.38.29-.55.09-.04.17-.07.25-.08.09-.02.18-.02.29-.02.4-.01.72.14.95.42.23.29.36.73.37 1.3zM43.47 8.1c-.2.18-.38.31-.57.34-.19.04-.42-.01-.69-.16l-.3-.16c-.04-.02-.07-.04-.08-.06-.01-.02 0-.05.03-.09l1.45-2.72a.3.3 0 01.09-.1c.03-.02.07-.02.11-.03l.4-.05-1.42-.76.17.36c.02.03.03.07.04.11.01.04 0 .08-.03.13l-1.5 2.82c-.03.06-.07.1-.1.12-.03.02-.07.03-.11.03l-.17.02-.29-.35a.354.354 0 01-.09-.17c-.02-.07-.02-.17-.02-.31-.03-1.26-.02-2.55-.03-3.81l-.76-.02.04.16v.06c0 .03-.01.06-.02.08-.01.02-.02.05-.03.08-.01.02-.03.04-.04.06l-1.22 1.58-.78.92c-.06.07-.12.12-.18.15s-.12.04-.19.04l-.62.04 1.6.57-.21-.32c0-.01 0-.02.01-.03.01-.01.02-.03.03-.06.02-.03.04-.07.07-.1l.47-.65c.11.03.29.08.52.17.26.09.48.18.61.24l.01.81c0 .06-.01.11-.03.15-.02.04-.04.07-.06.08l-.23.14 1.41.5-.19.03 2.41 1.28.07-.07c.07-.07.18-.2.29-.36.12-.15.25-.34.36-.51l.07-.12-.22-.12-.06.06zm-4.3-2.54c-.11-.04-.21-.08-.29-.11l-.09-.04.84-1.12.01 1.41c-.15-.04-.32-.1-.46-.15zm-15.53.76l-.47-.06a.424.424 0 01-.18-.06c-.06-.04-.13-.11-.23-.22L20.15 3.2l-.57.5.14.1c.01.01.03.02.04.05.02.02.03.05.05.08.01.02.02.05.02.08.01.02.01.05.01.07l.18 2 .06 1.2c.01.1-.01.17-.03.23-.02.06-.06.1-.11.16l-.43.45 1.56-.67-.37-.09c0-.01-.01-.02-.02-.03 0-.01-.01-.04-.01-.07-.01-.04-.01-.08-.02-.12l-.1-.79a9.022 9.022 0 011.1-.47l.56.59c.04.04.07.09.08.13.02.04.02.08.01.1l-.08.26 1.42-.61zm-2.77-.63c-.1.04-.19.08-.28.12l-.09.04-.14-1.39.96 1.03c-.13.06-.29.14-.44.2zm29.38 4.38l-1.04-1.09.06.4c.01.04.01.07 0 .11-.01.04-.03.07-.07.11l-2.31 2.21c-.05.05-.1.07-.13.08-.04.01-.07 0-.11-.01l-.4-.08 1.11 1.16c.45.47 1 .71 1.54.72.54.01 1.08-.21 1.53-.64.44-.42.64-.92.59-1.44-.04-.51-.31-1.04-.78-1.54zm-.49 2.58c-.33.32-.69.48-1.04.49-.34.01-.69-.14-.98-.45-.13-.14-.21-.25-.21-.34 0-.08.06-.18.19-.31l1.83-1.75.13-.13c.03.03.07.06.12.11.38.4.55.83.54 1.24-.02.41-.22.81-.57 1.15zm-37.84-1.54c-.45-.42-.96-.58-1.47-.51-.51.07-1.02.37-1.49.87l-1.03 1.1.39-.08c.04-.01.07-.01.11-.01.03.01.07.02.12.06l2.33 2.18c.05.05.07.09.08.13.01.03 0 .07 0 .11l-.03.22-.36.19a.36.36 0 01-.19.05c-.08 0-.17-.02-.31-.06-.99-.32-2.64-.58-3.73-.82l-.19.73h.16c.01 0 .04.01.06.01a.3.3 0 01.08.04c.02.01.04.03.06.05.02.02.04.03.05.05l1.27 1.55.73.96c.06.08.09.15.1.21.01.06.01.12 0 .19l-.1.62.92-1.44-.36.14c-.01 0-.02-.01-.03-.02-.01 0-.03-.02-.05-.04-.03-.03-.06-.06-.08-.09l-.53-.6c.05-.1.15-.26.28-.47.15-.23.28-.43.37-.54l.79.17c.06.01.11.04.14.06.04.03.06.05.07.07l.08.26.76-1.19-.01.09L12 14.18c.44-.48.65-1.03.63-1.56-.02-.55-.27-1.09-.73-1.52zM8.35 16.2c-.06.09-.12.18-.17.26l-.06.08-.9-1.07 1.38.31c-.07.13-.16.28-.25.42zm3.36-2.37c-.14.14-.24.22-.33.23-.08.01-.19-.05-.32-.18L9.2 12.15a.757.757 0 01-.13-.13.73.73 0 01.09-.11c.37-.4.78-.59 1.18-.61.42-.02.84.16 1.21.51.33.31.52.67.54 1.02.02.34-.1.69-.39 1zm-4.22 6.46c-.08.18-.15.29-.23.32-.08.04-.19.01-.36-.06l-2.48-1.12c.01-.03.03-.08.05-.14l.01-.01c.23-.51.56-.82.94-.96.38-.14.83-.1 1.28.1h.01c.42.19.7.46.84.78.13.32.13.69-.05 1.08zm22.8 32.97c-12.69 0-22.98-10.29-22.98-22.98C7.31 17.59 17.6 7.3 30.29 7.3c12.69 0 22.98 10.29 22.98 22.98 0 12.69-10.28 22.98-22.98 22.98z"/><path class="prefix__fil0" d="M28.35 52.43h3.88c.66-.06 1.31-.14 1.95-.26h-7.77c.64.12 1.29.2 1.95.26zM21.77 50.8h17.05c.23-.1.47-.2.7-.31H21.07c.23.11.47.21.7.31zM18.64 49.18h23.31c.19-.12.38-.24.56-.37H18.07c.19.12.38.25.57.37zM16.37 47.56h27.84c.17-.14.33-.28.5-.42H15.87c.16.14.33.28.5.42zM14.59 45.93h31.4c.15-.15.3-.31.45-.47H14.13c.15.16.3.32.45.47zM13.14 44.31h34.3c.14-.17.28-.35.41-.53H12.73c.13.18.27.35.41.53zM11.95 42.68h36.68c.13-.19.25-.38.38-.58H11.57c.12.2.25.39.38.58zM10.96 41.06h38.66c.11-.21.22-.42.33-.64H10.63c.11.21.22.43.33.64zM10.16 39.44h40.27c.1-.23.2-.46.29-.69H9.87c.09.23.19.46.29.69zM9.51 37.81h41.56c.08-.25.17-.5.25-.74H9.26c.08.25.17.5.25.74zM9.01 36.19h42.57c.07-.26.14-.53.2-.8H8.82c.06.27.13.53.2.8zM8.64 34.57h43.3c.05-.28.13-.66.17-.94H8.5c.04.29.09.66.14.94z"/></g><path class="prefix__fil0" d="M70.27 13.53V7.39c0-.44-.13-.68-.47-.93h2.31c-.34.24-.47.49-.47.93v6.15c0 1.77.73 3.11 2.78 3.11 2.03 0 3.03-1.51 3.03-3.42 0-3.84-.02-4.36-.13-5.84-.03-.44-.13-.68-.47-.93h1.84c-.34.24-.44.49-.47.93-.11 1.45-.11 1.92-.11 5.61 0 2.68-1.29 4.49-3.84 4.49-2.64 0-3.99-1.22-3.99-3.97zm61.21 38.79v-4.25c0-.73-.41-1.04-.68-1.11l1.9-.9v1.01l1.77-1.02c1.5 0 2.59.59 2.59 2.57v3.69c0 .51.21.86.5 1.04h-2.28c.28-.13.52-.55.52-1.04v-3.35c0-.99-.44-1.87-1.71-1.87-.54 0-1.14.13-1.37.23v4.99c0 .51.21.86.51 1.04h-2.28c.28-.13.52-.55.52-1.04zm-7.53-.91c0-.29 1.22-1.11 3.92-1.9v-.75c0-.98-.49-1.64-1.59-1.64-.81 0-1.4.15-2.21.47l-.03-.05c.54-.7 1.63-1.47 2.98-1.47 1.38 0 2.11.99 2.11 2.15v3.7c0 .63.15.83.46.99l-1.27.59c-.23-.15-.42-.42-.44-1.07-.36.58-.99 1.14-1.84 1.14-1.01 0-2.08-.49-2.08-2.15zm3.92.75v-1.81c-.9.02-1.97.24-2.57.57.02.99.37 1.73 1.34 1.73.42 0 .91-.2 1.24-.49zm-10.95-4.29c0-.73-.41-1.04-.68-1.11l1.94-.73v4.78c0 1.14.54 1.84 1.77 1.84.54 0 .9-.11 1.24-.28v-4.51c0-.73-.41-1.04-.68-1.11l1.94-.73v5.95c0 .65.16.81.46.99l-1.24.59c-.21-.15-.42-.39-.47-.96l-1.68.96c-1.51 0-2.59-.57-2.59-2.31v-3.38zm-6.2 6.9c1.32-.36 2.18-1.29 2.18-3.27l.03-8.04c0-.44-.13-.68-.47-.93h2.29c-.34.24-.47.49-.47.93v8.05c0 2.51-1.86 3.34-3.56 3.34v-.08zm-9.14-2.44v-4.25c0-.73-.41-1.04-.68-1.11l1.9-.9v1.01l1.77-1.02c1.5 0 2.59.59 2.59 2.57v3.69c0 .51.21.86.5 1.04h-2.28c.28-.13.52-.55.52-1.04v-3.35c0-.99-.44-1.87-1.71-1.87-.54 0-1.14.13-1.37.23v4.99c0 .51.21.86.5 1.04h-2.28c.28-.13.52-.55.52-1.04zm-7.55-.91c0-.29 1.22-1.11 3.92-1.9v-.75c0-.98-.49-1.64-1.59-1.64-.81 0-1.4.15-2.21.47l-.03-.05c.54-.7 1.63-1.47 2.98-1.47 1.38 0 2.11.99 2.11 2.15v3.7c0 .63.15.83.45.99l-1.27.59c-.23-.15-.42-.42-.44-1.07-.36.58-.99 1.14-1.84 1.14-1.01 0-2.08-.49-2.08-2.15zm3.92.75v-1.81c-.89.02-1.97.24-2.57.57.02.99.37 1.73 1.33 1.73.42 0 .91-.2 1.24-.49zm-11.27.7c-.03-.78.15-1.48.37-2.15h.03c.62 1.35 1.55 2.1 3.04 2.1.54 0 1.04-.18 1.22-.29.29-.41.49-1.02.49-1.51 0-3.17-4.74-2.8-4.74-5.92 0-1.3.94-2.75 3.24-2.75.94 0 1.82.2 2.54.62-.1.7-.34 1.11-.8 1.64-.59-1.02-1.4-1.55-2.43-1.55-.42 0-.75.1-.88.13-.36.37-.57.85-.57 1.51 0 2.41 4.75 2.46 4.75 5.74 0 1.37-.88 3.12-3.68 3.12-.94 0-2.07-.37-2.6-.7zm-8.36-3.32c.07 1.84.9 3.03 2.72 3.03.8 0 1.46-.24 1.66-.34l.02.03a3.01 3.01 0 01-2.47 1.3c-1.72 0-3.16-1.15-3.16-3.55 0-2.47 1.74-3.94 3.07-3.94 1.68 0 2.55 1.35 2.55 3.06-1.41.28-2.75.34-4.39.41zm0-.33c1.01-.13 2.2-.31 2.99-.7 0-.85-.54-1.72-1.53-1.72-.18 0-.39 0-.6.06-.36.36-.83 1.4-.86 2.36zm-4.03 3.48l-1.51.86c-1.77 0-3.27-1.12-3.27-3.32 0-2.33 1.4-4.18 3.61-4.18.47 0 .85.05 1.16.13v-2.7c0-.36-.1-.94-.68-1.12l1.94-.57v10.15c0 .54.08.78.45.99l-1.27.59c-.2-.13-.37-.36-.42-.83zm-.02-5.24c-.42-.41-1.06-.63-1.69-.63-.33 0-.72.07-.96.15-.54.51-.83 1.53-.83 2.52 0 2.13 1.12 3.03 2.39 3.03.37 0 .72-.02 1.09-.1v-4.96zm48.24-13.16c0 .5.21.86.51 1.04h-2.28c.27-.13.52-.55.52-1.04v-8.84c0-.36-.1-.94-.68-1.12l1.94-.57V34.3zm-8.8-.91c0-.29 1.22-1.11 3.92-1.9v-.75c0-.98-.49-1.64-1.6-1.64-.81 0-1.4.15-2.21.47l-.03-.05c.54-.7 1.63-1.46 2.98-1.46 1.38 0 2.12.99 2.12 2.15v3.69c0 .63.15.83.46.99l-1.27.59c-.23-.15-.42-.42-.44-1.07-.36.59-.99 1.14-1.84 1.14-1.01 0-2.08-.49-2.08-2.15zm3.92.75v-1.81c-.9.02-1.97.24-2.57.57.02.99.37 1.73 1.33 1.73.42 0 .91-.19 1.24-.49zm-11.23.16v-4.25c0-.73-.41-1.04-.68-1.11l1.9-.9v1.01l1.77-1.02c1.5 0 2.59.59 2.59 2.57v3.69c0 .5.21.86.51 1.04h-2.28c.28-.13.52-.55.52-1.04v-3.35c0-.99-.44-1.87-1.71-1.87-.54 0-1.14.13-1.37.23v5c0 .5.21.86.5 1.04h-2.28c.28-.13.52-.55.52-1.04zm-8.62-2.25c0-2.02 1.19-4 3.42-4 2.12 0 3.12 1.69 3.12 3.37 0 2.33-1.24 4.12-3.38 4.12-1.86 0-3.16-1.56-3.16-3.48zm4.83 2.47c.33-.55.51-1.35.51-2.08 0-1.77-.9-3.66-2.64-3.66-.24 0-.62.03-.94.23-.34.52-.52 1.19-.52 2.03 0 1.84.91 3.73 2.55 3.73.34 0 .78-.1 1.04-.24zm-6.65-.23c0 .5.21.86.5 1.04h-2.28c.28-.13.52-.55.52-1.04v-4.25c0-.73-.41-1.04-.68-1.11l1.94-.9v6.25zm-1.25-7.71c-.23-.23-.54-.91-.55-1.37.2-.2.9-.55 1.37-.55.18.1.55 1.06.55 1.37-.1.2-.99.55-1.37.55zm-1.59 2.12c-.11.47-.57 1.07-.8 1.28-.54-.8-1.19-1.22-2.02-1.22-.21 0-.44.03-.68.11-.5.52-.83 1.51-.83 2.41 0 2.1 1.02 3.24 2.54 3.24.75 0 1.2-.1 1.76-.33l.02.03c-.55.83-1.48 1.3-2.51 1.3-2.1 0-3.04-1.82-3.04-3.4 0-2.39 1.48-4.08 3.47-4.08.94 0 1.58.26 2.1.65zm-12.66 4.69c0-.29 1.22-1.11 3.92-1.9v-.75c0-.98-.49-1.64-1.59-1.64-.81 0-1.4.15-2.21.47l-.03-.05c.54-.7 1.63-1.46 2.98-1.46 1.38 0 2.11.99 2.11 2.15v3.69c0 .63.15.83.46.99l-1.27.59c-.23-.15-.42-.42-.44-1.07-.36.59-.99 1.14-1.84 1.14-1.01 0-2.08-.49-2.08-2.15zm3.92.75v-1.81c-.89.02-1.97.24-2.57.57.02.99.37 1.73 1.34 1.73.42 0 .91-.19 1.24-.49zm-6.57-8.59c0-.49-.13-.78-.62-1.06h2.02c-.42.28-.58.57-.58 1.06l-.18 10.09-6.95-8.09-.23-.34v2.91l.1 4.17c.02.49.13.78.62 1.06h-2c.42-.28.59-.57.59-1.06l.15-8.92-.08-.98 6.96 8.22.33.46v-2.56l-.11-4.96zm62.12-8.9l-1.51.86c-1.77 0-3.27-1.12-3.27-3.32 0-2.33 1.4-4.18 3.61-4.18.47 0 .85.05 1.15.13v-2.7c0-.36-.1-.94-.68-1.12l1.93-.57V15.9c0 .5.07.75.39.95v.07l-1.2.55c-.19-.13-.37-.36-.42-.83zm-.02-5.24c-.42-.41-1.06-.64-1.69-.64-.32 0-.72.07-.96.15-.54.5-.83 1.53-.83 2.52 0 2.13 1.12 3.03 2.39 3.03.37 0 .72-.02 1.09-.1v-4.96zm-11.8 3.95c0-.29 1.22-1.11 3.92-1.9v-.75c0-.98-.49-1.64-1.6-1.64-.81 0-1.4.15-2.21.47l-.03-.05c.54-.7 1.63-1.46 2.98-1.46 1.38 0 2.12.99 2.12 2.15v3.69c0 .64.15.83.45.99l-1.27.59c-.23-.14-.42-.42-.44-1.07-.36.58-.99 1.14-1.84 1.14-1.01 0-2.08-.49-2.08-2.15zm3.92.75V14.3c-.89.02-1.97.24-2.57.57.02.99.38 1.72 1.34 1.72.42 0 .91-.2 1.24-.49zm-7.03.54l-1.51.86c-1.77 0-3.27-1.12-3.27-3.32 0-2.33 1.4-4.18 3.61-4.18.47 0 .85.05 1.15.13v-2.7c0-.36-.1-.94-.68-1.12l1.94-.57V15.9c0 .54.08.78.46.99l-1.27.59c-.19-.13-.37-.36-.42-.83zm-.02-5.24c-.42-.41-1.06-.64-1.69-.64-.33 0-.72.07-.96.15-.54.5-.83 1.53-.83 2.52 0 2.13 1.12 3.03 2.39 3.03.37 0 .72-.02 1.09-.1v-4.96zm-6.75 4.86c0 .51.21.86.5 1.04h-2.28c.28-.13.52-.55.52-1.04v-4.25c0-.73-.41-1.04-.68-1.1l1.94-.9v6.25zm-1.25-7.71c-.23-.23-.54-.91-.55-1.37.2-.2.9-.55 1.37-.55.18.1.55 1.06.55 1.37-.1.2-.99.55-1.37.55zm-4.55 8.95c-.96 0-1.76-.32-1.9-.44.02-.65.16-1.06.44-1.43.73.96 1.66 1.41 2.85 1.16.23-.29.38-.62.38-1.01 0-1.86-3.43-1.71-3.43-3.73 0-1.34 1.3-2.04 2.47-2.04 1.04 0 1.54.26 1.85.42 0 .34-.26.93-.6 1.25-.63-.81-1.3-.96-1.9-.96-.2 0-.36.01-.42.03-.2.31-.26.57-.26.88 0 1.4 3.34 1.45 3.34 3.5 0 1.42-1.16 2.36-2.8 2.36zm-5.47-6c.24-.52.91-1.43 2.03-1.43.34 0 .65.11.85.26-.08.37-.28.8-.7 1.28-.23-.23-.55-.33-.93-.33-.54 0-.99.2-1.22.6v4.36c0 .5.21.83.6 1.06h-2.37c.31-.15.52-.6.52-1.06v-4.28c0-.54-.31-.98-.68-1.06l1.9-.9v1.48zm-7.52 1.98c.07 1.84.9 3.03 2.72 3.03.8 0 1.46-.24 1.66-.34l.02.03a3.01 3.01 0 01-2.47 1.3c-1.73 0-3.16-1.15-3.16-3.55 0-2.47 1.74-3.94 3.07-3.94 1.68 0 2.56 1.35 2.56 3.06-1.42.28-2.75.34-4.39.41zm0-.32c1.01-.13 2.2-.31 2.99-.7 0-.85-.54-1.72-1.53-1.72-.18 0-.39 0-.6.06-.36.36-.83 1.4-.86 2.36zm-1.66-2.93l-3.3 7.4-2.7-6.53c-.21-.49-.7-.81-1.01-.88h2.07l1.94 5.21 1.56-3.51c.15-.37.16-.62.16-.78 0-.41-.33-.75-.91-.91h2.2zm-7.99 6.04c0 .51.21.86.5 1.04h-2.28c.28-.13.52-.55.52-1.04v-4.25c0-.73-.41-1.04-.68-1.1l1.94-.9v6.25zm-1.25-7.71c-.23-.23-.54-.91-.55-1.37.2-.2.9-.55 1.37-.55.18.1.55 1.06.55 1.37-.1.2-.99.55-1.37.55zm-8.15 7.71v-4.25c0-.73-.41-1.04-.68-1.1l1.9-.9v1.01l1.77-1.03c1.5 0 2.59.59 2.59 2.57v3.69c0 .51.21.86.5 1.04h-2.28c.28-.13.52-.55.52-1.04v-3.35c0-.99-.44-1.87-1.71-1.87-.54 0-1.14.13-1.37.23v4.99c0 .51.21.86.51 1.04h-2.28c.28-.13.52-.55.52-1.04z"/></g></svg>