<svg xmlns="http://www.w3.org/2000/svg" width="132.917" height="55.599" viewBox="0 0 1492.21 624.19" shape-rendering="geometricPrecision" text-rendering="geometricPrecision" image-rendering="optimizeQuality" fill-rule="evenodd" clip-rule="evenodd"><defs><style>.prefix__str0{stroke:#fff;stroke-width:3.23;stroke-miterlimit:22.9256}.prefix__fil0,.prefix__fil1{fill:#fff}.prefix__fil0{fill-rule:nonzero}</style></defs><g id="prefix__Capa_x0020_1"><g id="prefix___2256566575376"><path class="prefix__fil0" d="M640.08 422.92c-1.6 0-3.15-.03-4.65-.12-1.5-.11-3.08-.28-4.72-.53-1.66-.27-3.53-.66-5.6-1.16.67-1.25 1.5-2.37 2.44-3.35.93-.98 2.03-1.71 3.32-2.21 1.25-.5 2.69-.67 4.29-.53 1.14.11 2.02.16 2.62.18.61.02 1.34.04 2.19.04 3.42 0 6.61-.86 9.57-2.57s5.54-4.06 7.75-7.06c2.21-2.99 3.94-6.47 5.19-10.41 1.25-3.92 1.88-8.13 1.88-12.58 0-6.88-1.18-12.73-3.5-17.54-2.35-4.81-5.85-8.47-10.51-11-4.67-2.49-10.52-3.76-17.54-3.76-2.14 0-4.24.07-6.31.21-2.07.14-3.95.32-5.66.53v70.58h-10.16v-76.57c3.39-.82 7.15-1.46 11.28-1.91 4.14-.45 7.75-.66 10.85-.66 9.05 0 16.76 1.6 23.08 4.81 6.31 3.21 11.12 7.81 14.44 13.8 3.28 5.99 4.93 13.15 4.93 21.5 0 5.81-.93 11.17-2.78 16.09-1.85 4.92-4.42 9.19-7.66 12.8-3.28 3.62-7.02 6.43-11.23 8.43-4.22 1.99-8.73 2.99-13.51 2.99z"/><path id="prefix___1" class="prefix__fil0" d="M686.92 421.64v-77.75h44.28v7.7h-34.11v62.35h35.72v7.7h-45.88zm14.22-37c.5-1.35 1.14-2.6 1.93-3.74a8.882 8.882 0 012.94-2.72c1.18-.68 2.62-1.02 4.33-1.02h17.22v7.48h-26.42z"/><path id="prefix___2" class="prefix__fil0" d="M748.63 421.64v-77c2.67-.53 5.19-.96 7.54-1.28 2.35-.32 4.69-.56 7.01-.68 2.32-.12 4.78-.18 7.38-.18 5.74 0 10.73 1.05 14.95 3.17 4.23 2.12 7.49 4.97 9.81 8.54 2.32 3.56 3.48 7.5 3.48 11.82 0 4.56-1.2 8.48-3.59 11.78-2.38 3.3-5.49 5.9-9.3 7.8-3.81 1.93-7.86 3.05-12.14 3.41-1.53.14-3.21.18-4.99.07-1.8-.07-3.71-.39-5.7-.93.53-1.21 1.26-2.3 2.17-3.3.89-.98 1.96-1.77 3.17-2.35 1.21-.59 2.57-.87 4.06-.87 2.46 0 4.88-.68 7.25-2.02 2.37-1.34 4.33-3.17 5.9-5.52 1.57-2.35 2.35-5.05 2.35-8.07 0-3-.78-5.67-2.35-8.06-1.57-2.35-3.67-4.22-6.31-5.61-2.64-1.35-5.56-2.05-8.77-2.05-1.96 0-3.94.06-5.9.16-1.98.11-3.94.27-5.86.48v70.69h-10.16z"/><path id="prefix___3" class="prefix__fil0" d="M807.98 421.64L836 343.89h9.95l28.02 77.75h-10.91l-21.71-62.67-.75-3.1-.75 3.1-11.98 34.33-1.18 2.24 1.28-.21h14.44c1.71 0 3.15.36 4.31 1.07 1.16.71 2.12 1.66 2.89 2.83a18.71 18.71 0 011.89 3.8h-26.95l-6.42 18.61h-10.16z"/><path id="prefix___4" class="prefix__fil0" d="M887.23 421.64v-76.78c2.67-.53 5.19-.98 7.54-1.34 2.35-.36 4.69-.64 7.01-.84 2.32-.2 4.78-.28 7.38-.28 5.74 0 10.73 1.03 14.95 3.12 4.23 2.08 7.49 4.88 9.81 8.38 2.32 3.5 3.48 7.33 3.48 11.5 0 4.31-1.2 8.09-3.59 11.33-2.38 3.25-5.44 5.81-9.14 7.7l-2.57.86 2.14.85c2.63 1.75 4.67 3.9 6.09 6.47 1.43 2.57 2.58 5.4 3.48 8.52.9 3.14 1.8 6.43 2.73 9.89.93 3.48 2.21 7.02 3.85 10.62h-10.7c-1.43-3.07-2.57-6.34-3.42-9.82-.86-3.45-1.75-6.82-2.67-10.07-.93-3.24-2.16-6.11-3.71-8.59-1.55-2.46-3.74-4.24-6.56-5.31-2.03.21-3.99.27-5.85.12-1.87-.11-3.81-.41-5.81-.87.53-1.21 1.26-2.32 2.17-3.3.89-.98 1.96-1.75 3.17-2.32 1.21-.57 2.57-.87 4.06-.91 2.46-.07 4.88-.77 7.25-2.09 2.37-1.32 4.33-3.12 5.9-5.4 1.57-2.28 2.35-4.88 2.35-7.81 0-2.81-.78-5.36-2.35-7.65-1.57-2.28-3.67-4.08-6.31-5.44-2.64-1.32-5.56-1.99-8.77-1.99-1.96 0-3.78.03-5.42.11-1.66.07-3.78.36-6.34.86v70.47h-10.16z"/><path id="prefix___5" class="prefix__fil0" d="M970.75 421.64v-70.05h-22.67v-7.7h55.72v7.7h-22.78v70.05z"/><path id="prefix___6" class="prefix__fil0" d="M1008.93 421.64l28.02-77.75h9.95l28.02 77.75h-10.91l-21.71-62.67-.75-3.1-.75 3.1-11.98 34.33-1.18 2.24 1.28-.21h14.44c1.71 0 3.15.36 4.31 1.07 1.16.71 2.12 1.66 2.89 2.83a18.71 18.71 0 011.89 3.8h-26.95l-6.42 18.61h-10.16z"/><path id="prefix___7" class="prefix__fil0" d="M1086.04 421.64l8.66-77.75h13.15l20.86 62.45.75 3.32.74-3.32 20.86-62.45h13.15l8.56 77.75h-9.73l-6.1-62.25-.32-4.6-1.28 4.6-21.18 61.18h-9.52l-21.28-61.28-1.39-4.5-.32 4.5-5.99 62.35z"/><path id="prefix___8" class="prefix__fil0" d="M1189.67 421.64v-77.75h44.28v7.7h-34.11v62.35h35.72v7.7h-45.88zm14.22-37c.5-1.35 1.14-2.6 1.93-3.74a8.882 8.882 0 012.94-2.72c1.18-.68 2.62-1.02 4.33-1.02h17.22v7.48h-26.42z"/><path id="prefix___9" class="prefix__fil0" d="M1252.98 421.64v-77.75h10.16l37.75 60.31 1.28 3.53-.21-3.74v-60.1h8.98v77.75h-9.09l-38.93-62.14-1.49-3.63.21 3.63v62.14z"/><path id="prefix___10" class="prefix__fil0" d="M1345.7 421.64v-70.05h-22.67v-7.7h55.71v7.7h-22.77v70.05z"/><path id="prefix___11" class="prefix__fil0" d="M1420.99 423.13c-6.67 0-12.73-1.62-18.18-4.85-5.45-3.21-9.8-7.86-13.01-13.9-3.23-6.04-4.85-13.26-4.85-21.67 0-6.81 1.09-12.75 3.25-17.81 2.16-5.06 4.99-9.27 8.52-12.62 3.53-3.35 7.41-5.86 11.66-7.52 4.24-1.66 8.45-2.48 12.62-2.48 5.81 0 10.96 1.05 15.44 3.17 4.46 2.12 8.23 5.06 11.3 8.77 3.06 3.74 5.38 8.04 6.95 12.89 1.57 4.87 2.35 10.07 2.35 15.6 0 6.17-.95 11.74-2.85 16.7-1.93 4.99-4.55 9.23-7.9 12.76-3.35 3.53-7.2 6.24-11.52 8.13-4.33 1.89-8.93 2.83-13.78 2.83zm0-7.7c5.03 0 9.43-1.46 13.21-4.37 3.78-2.89 6.7-6.83 8.8-11.78 2.07-4.95 3.12-10.48 3.12-16.57 0-6.7-1.14-12.5-3.39-17.38-2.28-4.88-5.31-8.64-9.13-11.28-3.81-2.64-8.02-3.95-12.62-3.95s-8.8 1.32-12.62 3.95c-3.81 2.64-6.84 6.4-9.11 11.28-2.28 4.88-3.4 10.68-3.4 17.38 0 4.85.62 9.27 1.87 13.26s3.01 7.45 5.27 10.34c2.27 2.91 4.92 5.15 7.99 6.74 3.07 1.59 6.4 2.39 10 2.39z"/><path id="prefix___12" class="prefix__fil0" d="M640.08 550.39c-1.6 0-3.15-.03-4.65-.12-1.5-.11-3.08-.28-4.72-.53-1.66-.27-3.53-.66-5.6-1.16.67-1.25 1.5-2.37 2.44-3.35.93-.98 2.03-1.71 3.32-2.21 1.25-.5 2.69-.67 4.29-.53 1.14.11 2.02.16 2.62.18.61.02 1.34.04 2.19.04 3.42 0 6.61-.86 9.57-2.57s5.54-4.06 7.75-7.06c2.21-2.99 3.94-6.47 5.19-10.41 1.25-3.92 1.88-8.13 1.88-12.58 0-6.88-1.18-12.73-3.5-17.54-2.35-4.81-5.85-8.47-10.51-11-4.67-2.49-10.52-3.76-17.54-3.76-2.14 0-4.24.07-6.31.21-2.07.14-3.95.32-5.66.53v70.58h-10.16v-76.57c3.39-.82 7.15-1.46 11.28-1.91 4.14-.45 7.75-.66 10.85-.66 9.05 0 16.76 1.6 23.08 4.81 6.31 3.21 11.12 7.81 14.44 13.8 3.28 5.99 4.93 13.15 4.93 21.5 0 5.81-.93 11.17-2.78 16.09-1.85 4.92-4.42 9.19-7.66 12.8-3.28 3.62-7.02 6.43-11.23 8.43-4.22 1.99-8.73 2.99-13.51 2.99z"/><path id="prefix___13" class="prefix__fil0" d="M686.92 549.11v-77.75h44.28v7.7h-34.11v62.35h35.72v7.7h-45.88zm14.22-37c.5-1.35 1.14-2.6 1.93-3.74a8.882 8.882 0 012.94-2.72c1.18-.68 2.62-1.02 4.33-1.02h17.22v7.48h-26.42z"/><path id="prefix___14" class="prefix__fil0 prefix__str0" d="M776.11 549.11v-77.75h9.84v77.75z"/><path id="prefix___15" class="prefix__fil0 prefix__str0" d="M806.59 549.11v-77.75h10.16l37.76 60.32 1.28 3.53-.21-3.75v-60.1h8.98v77.75h-9.1l-38.92-62.14-1.5-3.63.22 3.63v62.14z"/><path id="prefix___16" class="prefix__fil0 prefix__str0" d="M885.09 549.11v-77.75h44.28v7.7h-34.11v70.05H885.1zm14.22-37c.5-1.35 1.14-2.6 1.93-3.74a8.882 8.882 0 012.94-2.72c1.18-.68 2.62-1.02 4.33-1.02h17.22v7.48h-26.42z"/><path id="prefix___17" class="prefix__fil0 prefix__str0" d="M977.71 550.61c-6.67 0-12.73-1.62-18.18-4.85-5.45-3.21-9.8-7.86-13.01-13.9-3.23-6.04-4.85-13.26-4.85-21.67 0-6.81 1.09-12.75 3.25-17.81 2.16-5.06 4.99-9.27 8.52-12.62 3.53-3.35 7.41-5.86 11.66-7.52 4.24-1.66 8.45-2.48 12.62-2.48 5.81 0 10.96 1.05 15.44 3.17 4.46 2.12 8.23 5.06 11.3 8.77 3.06 3.74 5.38 8.04 6.95 12.89 1.57 4.87 2.35 10.07 2.35 15.6 0 6.17-.95 11.74-2.85 16.7-1.93 4.99-4.55 9.23-7.9 12.76-3.35 3.53-7.2 6.24-11.52 8.13-4.33 1.89-8.93 2.83-13.78 2.83zm0-7.7c5.03 0 9.43-1.46 13.21-4.37 3.78-2.89 6.7-6.83 8.8-11.78 2.07-4.95 3.12-10.48 3.12-16.57 0-6.7-1.14-12.5-3.39-17.38-2.28-4.88-5.31-8.64-9.13-11.28-3.81-2.64-8.02-3.95-12.62-3.95s-8.8 1.32-12.62 3.95c-3.81 2.64-6.84 6.4-9.11 11.28-2.28 4.88-3.4 10.68-3.4 17.38 0 4.85.62 9.27 1.87 13.26s3.01 7.45 5.27 10.34c2.27 2.91 4.92 5.15 7.99 6.74 3.07 1.59 6.4 2.39 10 2.39z"/><path id="prefix___18" class="prefix__fil0 prefix__str0" d="M1030.96 549.11v-76.78c2.67-.53 5.19-.98 7.54-1.34 2.35-.36 4.69-.64 7.01-.84 2.32-.2 4.78-.28 7.38-.28 5.74 0 10.73 1.03 14.95 3.12 4.23 2.08 7.49 4.88 9.81 8.38 2.32 3.5 3.48 7.33 3.48 11.5 0 4.31-1.2 8.09-3.59 11.33-2.38 3.25-5.44 5.81-9.14 7.7l-2.57.86 2.14.85c2.63 1.75 4.67 3.9 6.09 6.47 1.43 2.57 2.58 5.4 3.48 8.52.9 3.14 1.8 6.43 2.73 9.89.93 3.48 2.21 7.02 3.85 10.62h-10.7c-1.43-3.07-2.57-6.34-3.42-9.82-.86-3.45-1.75-6.82-2.67-10.07-.93-3.24-2.16-6.11-3.71-8.59-1.55-2.46-3.74-4.24-6.56-5.31-2.03.21-3.99.27-5.85.12-1.87-.11-3.81-.41-5.81-.87.53-1.21 1.26-2.32 2.17-3.3.89-.98 1.96-1.75 3.17-2.32 1.21-.57 2.57-.87 4.06-.91 2.46-.07 4.88-.77 7.25-2.09 2.37-1.32 4.33-3.12 5.9-5.4 1.57-2.28 2.35-4.88 2.35-7.81 0-2.81-.78-5.36-2.35-7.65-1.57-2.28-3.67-4.08-6.31-5.44-2.64-1.32-5.56-1.99-8.77-1.99-1.96 0-3.78.03-5.42.11-1.66.07-3.78.36-6.34.86v70.47h-10.16z"/><path id="prefix___19" class="prefix__fil0 prefix__str0" d="M1098.12 549.11l8.67-77.75h13.15l20.85 62.46.75 3.31.75-3.31 20.85-62.46h13.16l8.55 77.75h-9.73l-6.1-62.24-.31-4.6-1.29 4.6-21.17 61.17h-9.52l-21.28-61.28-1.4-4.49-.31 4.49-6 62.35z"/><path id="prefix___20" class="prefix__fil0 prefix__str0" d="M1195.98 549.11l28.02-77.75h9.95l28.02 77.75h-10.91l-21.71-62.67-.75-3.1-.75 3.1-11.98 34.33-1.18 2.24 1.28-.21h14.44c1.71 0 3.15.36 4.31 1.07 1.16.71 2.12 1.66 2.89 2.83a18.71 18.71 0 011.89 3.8h-26.95l-6.42 18.61h-10.16zm27.7-81.92l9.52-13.26h10.37l-9.41 10.48c-.96 1.04-2.02 1.8-3.17 2.3-1.16.5-2.37.77-3.62.82-1.25.05-2.48-.06-3.69-.34z"/><path id="prefix___21" class="prefix__fil0 prefix__str0" d="M1289.44 549.11v-70.05h-22.67v-7.7h55.72v7.7h-22.78v70.05z"/><path id="prefix___22" class="prefix__fil0 prefix__str0" d="M1333.4 549.11v-77.75h9.84v77.75z"/><path id="prefix___23" class="prefix__fil0 prefix__str0" d="M1399.17 550.39c-7.31 0-13.89-1.62-19.73-4.85-5.84-3.21-10.48-7.82-13.87-13.82-3.4-5.99-5.11-13.1-5.11-21.33 0-5.99.98-11.46 2.94-16.4 1.96-4.92 4.71-9.2 8.21-12.8 3.51-3.6 7.61-6.38 12.3-8.32 4.67-1.94 9.77-2.91 15.26-2.91a51 51 0 019.28.87c3.17.59 6.4 1.51 9.64 2.76l-2.78 6.95c-3.1-1.03-5.95-1.74-8.55-2.17-2.6-.39-5.13-.61-7.59-.61-3.67 0-7.18.68-10.54 2.03-3.35 1.35-6.33 3.39-8.89 6.09-2.58 2.71-4.63 6.11-6.13 10.18-1.5 4.08-2.25 8.86-2.25 14.31 0 4.85.75 9.25 2.25 13.21 1.5 3.95 3.55 7.36 6.13 10.21 2.57 2.85 5.54 5.05 8.89 6.58 3.35 1.53 6.86 2.3 10.54 2.3 2.46 0 5.04-.32 7.74-.96 2.67-.64 5.49-1.71 8.41-3.21l2.78 6.95c-3.32 1.75-6.56 3.01-9.7 3.78-3.15.75-6.24 1.14-9.23 1.14z"/><path id="prefix___24" class="prefix__fil0 prefix__str0" d="M1426.22 549.11l28.02-77.75h9.95l28.02 77.75h-10.91l-21.71-62.67-.75-3.1-.75 3.1-11.98 34.33-1.18 2.24 1.28-.21h14.44c1.71 0 3.15.36 4.31 1.07 1.16.71 2.12 1.66 2.89 2.83a18.71 18.71 0 011.89 3.8h-26.95l-6.42 18.61h-10.16z"/><circle class="prefix__fil1" cx="526.72" cy="43.11" r="43.11"/><path class="prefix__fil1" d="M414.25 461.12c0 90.06-73.01 163.08-163.08 163.08H-.01V50.62h251.18c90.06 0 163.08 73.01 163.08 163.08v50.61h88.1V123.73h44.99v423.63h-44.99V408.65h-88.1v52.49zM228.68 584.83c80.75 0 146.21-65.46 146.21-146.21V236.18c0-80.75-65.46-146.21-146.21-146.21H41.24v494.85h187.44z"/></g></g></svg>