<svg xmlns="http://www.w3.org/2000/svg" width="126.306" height="49.435" viewBox="0 0 635.6 248.77" shape-rendering="geometricPrecision" text-rendering="geometricPrecision" image-rendering="optimizeQuality" fill-rule="evenodd" clip-rule="evenodd"><defs><style>.prefix__fil0,.prefix__fil1{fill:#fff}.prefix__fil0{fill-rule:nonzero}</style></defs><g id="prefix__Capa_x0020_1"><g id="prefix___2119741868496"><path class="prefix__fil0" d="M261.89 17.47c-3.12-1.87-6.63-2.84-10.61-2.84-11.11 0-16.68 7.62-16.68 22.86v16.64h23.31v14.74H234.6v93.09h-15.85V68.87h-17.01V54.13h17.01V36.66c0-11.32 3.02-20.24 9.02-26.81C233.81 3.27 241.33 0 250.32 0c4.87 0 8.72.65 11.57 1.9v15.56zM342.8 157c-7.62 5-16.71 7.48-27.19 7.48-14.19 0-25.63-5-34.35-14.99-8.69-9.99-13.06-22.97-13.06-38.92 0-17.76 4.71-32.03 14.09-42.81 9.38-10.75 21.92-16.14 37.61-16.14 8.75 0 16.45 1.73 23.11 5.25v17.68c-7.4-5.61-15.29-8.41-23.71-8.41-10.14 0-18.5 3.95-25 11.86-6.5 7.87-9.78 18.26-9.78 31.09 0 12.65 3.08 22.61 9.19 29.9 6.13 7.3 14.32 10.96 24.64 10.96 8.69 0 16.85-3.13 24.47-9.38V157zm104.02-44.64h-70.23c.27 12.01 3.25 21.28 8.95 27.82 5.71 6.5 13.53 9.78 23.51 9.78 11.21 0 21.49-3.99 30.9-12.01v16.21c-8.75 6.9-20.33 10.32-34.68 10.32-14.06 0-25.1-4.89-33.13-14.67-8.06-9.81-12.07-23.58-12.07-41.33 0-16.79 4.41-30.44 13.17-41.01 8.79-10.57 19.7-15.85 32.7-15.85 13.03 0 23.08 4.56 30.21 13.69 7.13 9.09 10.68 21.78 10.68 37.99v9.06zm-16.31-14.63c-.07-9.96-2.29-17.72-6.63-23.29-4.38-5.53-10.44-8.3-18.24-8.3-7.5 0-13.89 2.91-19.13 8.74-5.24 5.82-8.49 13.44-9.72 22.86h53.72zm89.6-80.26c-3.12-1.87-6.63-2.84-10.61-2.84-11.11 0-16.68 7.62-16.68 22.86v16.64h23.31v14.74h-23.31v93.09h-15.85V68.87h-17.01V54.13h17.01V36.66c0-11.32 3.02-20.24 9.02-26.81C492.03 3.27 499.55 0 508.54 0c4.87 0 8.72.65 11.57 1.9v15.56zm95.7 144.49h-15.95v-61.5c0-22.9-7.7-34.33-23.11-34.33-7.96 0-14.56 3.24-19.76 9.74-5.24 6.5-7.82 14.7-7.82 24.58v61.5h-15.95V54.12h15.95v17.9h.4c7.5-13.62 18.37-20.42 32.63-20.42 10.88 0 19.2 3.81 24.97 11.43 5.77 7.58 8.66 18.62 8.66 33v65.92zM7.62 216.7v-20.33h13.72v2.39H10.32v6.33h9.54v2.39h-9.54v9.23h-2.7zm26.52-1.85c-.93.79-1.82 1.34-2.68 1.67-.86.33-1.77.49-2.76.49-1.62 0-2.86-.39-3.74-1.18-.87-.79-1.3-1.79-1.3-3.02a4.08 4.08 0 011.78-3.4c.53-.36 1.13-.64 1.8-.82.49-.13 1.24-.25 2.23-.37 2.02-.24 3.51-.52 4.46-.86.01-.34.02-.56.02-.65 0-1.01-.24-1.73-.71-2.14-.64-.56-1.59-.84-2.85-.84-1.18 0-2.05.21-2.61.62-.56.41-.97 1.14-1.24 2.19l-2.44-.34c.22-1.05.59-1.89 1.1-2.54.51-.64 1.25-1.14 2.22-1.49.96-.35 2.08-.52 3.35-.52 1.26 0 2.29.15 3.08.45.79.3 1.37.67 1.74 1.12.37.45.63 1.02.78 1.7.08.43.12 1.19.12 2.3v3.31c0 2.31.05 3.78.16 4.4.1.62.31 1.21.61 1.78h-2.61c-.25-.52-.41-1.14-.48-1.85zm-.2-5.54c-.91.37-2.27.68-4.09.94-1.03.15-1.76.31-2.19.5-.43.18-.75.45-.99.8-.23.35-.35.75-.35 1.18 0 .66.25 1.21.76 1.65.51.44 1.25.66 2.22.66.96 0 1.82-.21 2.57-.63.75-.42 1.3-.99 1.65-1.71.27-.56.4-1.39.4-2.48l.02-.91zm15.99 1.99l2.44.34c-.27 1.68-.95 2.99-2.05 3.94-1.1.95-2.46 1.42-4.07 1.42-2.01 0-3.63-.66-4.85-1.97-1.23-1.31-1.84-3.2-1.84-5.65 0-1.59.27-2.98.79-4.17s1.33-2.08 2.4-2.67c1.07-.6 2.24-.89 3.51-.89 1.59 0 2.91.4 3.92 1.21 1.02.81 1.67 1.96 1.96 3.45l-2.41.37c-.23-.99-.64-1.73-1.23-2.23s-1.3-.75-2.13-.75c-1.26 0-2.28.45-3.07 1.35-.79.91-1.18 2.32-1.18 4.28 0 1.98.38 3.41 1.14 4.31.76.9 1.75 1.34 2.97 1.34.98 0 1.8-.3 2.46-.9.66-.6 1.07-1.52 1.25-2.76zm14.2 5.4v-2.19c-1.14 1.67-2.7 2.5-4.66 2.5-.87 0-1.68-.17-2.43-.5-.75-.34-1.31-.75-1.68-1.26-.36-.51-.62-1.12-.77-1.85-.1-.49-.15-1.27-.15-2.33v-9.12h2.5v8.16c0 1.3.05 2.18.15 2.63.16.66.49 1.17 1 1.54.51.37 1.13.56 1.88.56s1.45-.19 2.1-.57c.65-.38 1.12-.91 1.39-1.57.27-.66.41-1.62.41-2.87v-7.88h2.5v14.74h-2.24zm6.11 0v-20.33h2.5v20.33h-2.5zm11.79-2.23l.34 2.21c-.7.15-1.33.22-1.88.22-.91 0-1.61-.14-2.11-.43-.5-.29-.85-.66-1.05-1.13-.2-.47-.3-1.45-.3-2.95v-8.49h-1.84v-1.93h1.84v-3.64l2.5-1.5v5.14h2.5v1.93h-2.5v8.63c0 .72.04 1.17.13 1.38.09.2.23.37.43.49.2.12.48.18.85.18.27 0 .64-.03 1.09-.1zm12.09.38c-.93.79-1.82 1.34-2.68 1.67-.86.33-1.77.49-2.76.49-1.62 0-2.86-.39-3.74-1.18-.87-.79-1.3-1.79-1.3-3.02a4.08 4.08 0 011.78-3.4c.53-.36 1.13-.64 1.8-.82.49-.13 1.24-.25 2.23-.37 2.02-.24 3.51-.52 4.46-.86.01-.34.02-.56.02-.65 0-1.01-.24-1.73-.71-2.14-.64-.56-1.59-.84-2.85-.84-1.18 0-2.05.21-2.61.62-.56.41-.97 1.14-1.24 2.19l-2.44-.34c.22-1.05.59-1.89 1.1-2.54.51-.64 1.25-1.14 2.22-1.49.96-.35 2.08-.52 3.35-.52 1.26 0 2.29.15 3.08.45.79.3 1.37.67 1.74 1.12.37.45.63 1.02.78 1.7.08.43.12 1.19.12 2.3v3.31c0 2.31.05 3.78.16 4.4.1.62.31 1.21.61 1.78h-2.61c-.25-.52-.41-1.14-.48-1.85zm-.2-5.54c-.91.37-2.27.68-4.09.94-1.03.15-1.76.31-2.19.5-.43.18-.75.45-.99.8-.23.35-.35.75-.35 1.18 0 .66.25 1.21.76 1.65.51.44 1.25.66 2.22.66.96 0 1.82-.21 2.57-.63.75-.42 1.3-.99 1.65-1.71.27-.56.4-1.39.4-2.48l.02-.91zm15.88 7.38v-1.87c-.93 1.45-2.31 2.18-4.12 2.18-1.18 0-2.25-.32-3.23-.97-.99-.64-1.75-1.55-2.29-2.7-.54-1.16-.81-2.49-.81-3.99 0-1.47.25-2.8.73-4 .49-1.19 1.23-2.11 2.21-2.74.98-.64 2.07-.96 3.28-.96.89 0 1.68.19 2.37.56.69.37 1.25.87 1.69 1.47v-7.31h2.5v20.33h-2.33zm-7.89-7.35c0 1.88.4 3.29 1.2 4.22.8.93 1.74 1.4 2.82 1.4 1.09 0 2.02-.45 2.79-1.34.76-.89 1.15-2.25 1.15-4.07 0-2.01-.39-3.48-1.17-4.43-.78-.94-1.74-1.41-2.88-1.41-1.11 0-2.04.45-2.79 1.35-.74.9-1.12 2.33-1.12 4.27zm31.58 7.35v-1.87c-.93 1.45-2.31 2.18-4.12 2.18-1.18 0-2.25-.32-3.23-.97-.99-.64-1.75-1.55-2.29-2.7-.54-1.16-.81-2.49-.81-3.99 0-1.47.25-2.8.73-4 .49-1.19 1.23-2.11 2.21-2.74.98-.64 2.07-.96 3.28-.96.89 0 1.68.19 2.37.56.69.37 1.25.87 1.69 1.47v-7.31h2.5v20.33h-2.33zm-7.89-7.35c0 1.88.4 3.29 1.2 4.22.8.93 1.74 1.4 2.82 1.4 1.09 0 2.02-.45 2.79-1.34.76-.89 1.15-2.25 1.15-4.07 0-2.01-.39-3.48-1.17-4.43-.78-.94-1.74-1.41-2.88-1.41-1.11 0-2.04.45-2.79 1.35-.74.9-1.12 2.33-1.12 4.27zm24.23 2.58l2.58.34c-.4 1.5-1.15 2.67-2.25 3.5-1.1.83-2.5 1.24-4.21 1.24-2.15 0-3.85-.66-5.11-1.99-1.26-1.32-1.89-3.18-1.89-5.57 0-2.47.64-4.39 1.91-5.76s2.93-2.05 4.96-2.05c1.96 0 3.57.67 4.81 2.01 1.25 1.34 1.87 3.22 1.87 5.65 0 .15 0 .37-.01.66h-10.98c.1 1.61.55 2.85 1.37 3.71.82.86 1.85 1.29 3.07 1.29.91 0 1.69-.24 2.34-.72.65-.48 1.16-1.25 1.54-2.31zm-8.18-4h8.21c-.11-1.24-.43-2.17-.94-2.79-.79-.96-1.82-1.44-3.08-1.44-1.15 0-2.11.38-2.89 1.15-.78.77-1.21 1.79-1.29 3.08zm36.61 1.64l2.7.68c-.56 2.21-1.58 3.89-3.04 5.05-1.46 1.16-3.25 1.74-5.37 1.74-2.19 0-3.97-.45-5.34-1.34-1.37-.89-2.42-2.18-3.13-3.87-.72-1.69-1.07-3.51-1.07-5.45 0-2.12.4-3.96 1.21-5.54.81-1.58 1.96-2.77 3.45-3.59 1.49-.82 3.13-1.22 4.92-1.22 2.04 0 3.74.52 5.13 1.55 1.39 1.04 2.35 2.49 2.9 4.36l-2.64.63c-.47-1.48-1.15-2.56-2.05-3.23-.89-.68-2.02-1.01-3.38-1.01-1.56 0-2.86.37-3.91 1.12-1.05.75-1.79 1.76-2.21 3.01-.43 1.26-.64 2.57-.64 3.9 0 1.73.25 3.24.75 4.52.5 1.29 1.28 2.25 2.34 2.89 1.06.64 2.2.96 3.44.96 1.5 0 2.77-.44 3.82-1.3 1.04-.87 1.75-2.16 2.11-3.87zm5.71-10.36v-2.84h2.5v2.84h-2.5zm0 17.49v-14.74h2.5v14.74h-2.5zm16.36-4.77l2.58.34c-.4 1.5-1.15 2.67-2.25 3.5-1.1.83-2.5 1.24-4.21 1.24-2.15 0-3.85-.66-5.11-1.99-1.26-1.32-1.89-3.18-1.89-5.57 0-2.47.64-4.39 1.91-5.76s2.93-2.05 4.96-2.05c1.96 0 3.57.67 4.81 2.01 1.25 1.34 1.87 3.22 1.87 5.65 0 .15 0 .37-.01.66h-10.98c.1 1.61.55 2.85 1.37 3.71.82.86 1.85 1.29 3.07 1.29.91 0 1.69-.24 2.34-.72.65-.48 1.16-1.25 1.54-2.31zm-8.18-4h8.21c-.11-1.24-.43-2.17-.94-2.79-.79-.96-1.82-1.44-3.08-1.44-1.15 0-2.11.38-2.89 1.15-.78.77-1.21 1.79-1.29 3.08zm13.92 8.78v-14.74h2.24v2.09c1.08-1.6 2.64-2.4 4.68-2.4.89 0 1.7.16 2.45.48.74.32 1.3.74 1.67 1.26.37.52.63 1.13.78 1.84.09.46.14 1.27.14 2.43v9.05h-2.5v-8.96c0-1.02-.1-1.78-.29-2.28-.19-.5-.54-.9-1.03-1.21-.49-.3-1.07-.45-1.74-.45-1.06 0-1.97.34-2.74 1.01-.77.67-1.15 1.96-1.15 3.84v8.04h-2.5zm25.42-5.4l2.44.34c-.27 1.68-.95 2.99-2.05 3.94-1.1.95-2.46 1.42-4.07 1.42-2.01 0-3.63-.66-4.85-1.97-1.23-1.31-1.84-3.2-1.84-5.65 0-1.59.27-2.98.79-4.17s1.33-2.08 2.4-2.67c1.07-.6 2.24-.89 3.51-.89 1.59 0 2.91.4 3.92 1.21 1.02.81 1.67 1.96 1.96 3.45l-2.41.37c-.23-.99-.64-1.73-1.23-2.23s-1.3-.75-2.13-.75c-1.26 0-2.28.45-3.07 1.35-.79.91-1.18 2.32-1.18 4.28 0 1.98.38 3.41 1.14 4.31.76.9 1.75 1.34 2.97 1.34.98 0 1.8-.3 2.46-.9.66-.6 1.07-1.52 1.25-2.76zm4.57-12.1v-2.84h2.5v2.84h-2.5zm0 17.49v-14.74h2.5v14.74h-2.5zm15.93-1.85c-.93.79-1.82 1.34-2.68 1.67-.86.33-1.77.49-2.76.49-1.62 0-2.86-.39-3.74-1.18-.87-.79-1.3-1.79-1.3-3.02a4.08 4.08 0 011.78-3.4c.53-.36 1.13-.64 1.8-.82.49-.13 1.24-.25 2.23-.37 2.02-.24 3.51-.52 4.46-.86.01-.34.02-.56.02-.65 0-1.01-.24-1.73-.71-2.14-.64-.56-1.59-.84-2.85-.84-1.18 0-2.05.21-2.61.62-.56.41-.97 1.14-1.24 2.19l-2.44-.34c.22-1.05.59-1.89 1.1-2.54.51-.64 1.25-1.14 2.22-1.49.96-.35 2.08-.52 3.35-.52 1.26 0 2.29.15 3.08.45.79.3 1.37.67 1.74 1.12.37.45.63 1.02.78 1.7.08.43.12 1.19.12 2.3v3.31c0 2.31.05 3.78.16 4.4.1.62.31 1.21.61 1.78h-2.61c-.25-.52-.41-1.14-.48-1.85zm-.2-5.54c-.91.37-2.27.68-4.09.94-1.03.15-1.76.31-2.19.5-.43.18-.75.45-.99.8-.23.35-.35.75-.35 1.18 0 .66.25 1.21.76 1.65.51.44 1.25.66 2.22.66.96 0 1.82-.21 2.57-.63.75-.42 1.3-.99 1.65-1.71.27-.56.4-1.39.4-2.48l.02-.91zm5.37 2.98l2.47-.4c.14.99.52 1.75 1.16 2.28.63.52 1.52.79 2.66.79 1.15 0 2-.23 2.56-.7.55-.46.83-1.01.83-1.64 0-.56-.25-1.01-.75-1.33-.35-.22-1.2-.5-2.55-.85-1.83-.46-3.09-.86-3.8-1.19-.71-.34-1.24-.8-1.6-1.4-.37-.59-.55-1.25-.55-1.97 0-.66.15-1.26.45-1.82.3-.56.71-1.02 1.23-1.39.39-.29.92-.53 1.59-.72.67-.2 1.39-.3 2.15-.3 1.15 0 2.17.17 3.04.5.87.33 1.52.79 1.93 1.35.41.57.7 1.33.86 2.29l-2.44.34c-.11-.77-.43-1.37-.96-1.8-.53-.43-1.28-.64-2.25-.64-1.14 0-1.96.19-2.45.57-.49.38-.73.82-.73 1.33 0 .32.1.62.3.88.2.26.52.49.96.66.25.1.98.31 2.2.64 1.76.47 2.99.86 3.69 1.15.7.3 1.25.74 1.65 1.31.4.57.6 1.28.6 2.13 0 .83-.24 1.61-.73 2.34-.49.73-1.19 1.3-2.1 1.7-.92.4-1.95.6-3.11.6-1.91 0-3.37-.4-4.38-1.19-1-.8-1.64-1.97-1.92-3.53zm23.45 4.4v-20.33h14.68v2.39h-11.98v6.25h11.22v2.39h-11.22v6.93h12.47v2.39h-15.16zm16.87 0l5.38-7.63-4.98-7.11h3.07l2.33 3.48c.43.65.77 1.18 1.01 1.6.42-.59.8-1.13 1.13-1.61l2.45-3.47h3.05l-5.01 7.11 5.34 7.63h-3.04l-3.05-4.54-.7-1.09-3.94 5.64h-3.05zm25.53-1.85c-.93.79-1.82 1.34-2.68 1.67-.86.33-1.77.49-2.76.49-1.62 0-2.86-.39-3.74-1.18-.87-.79-1.3-1.79-1.3-3.02a4.08 4.08 0 011.78-3.4c.53-.36 1.13-.64 1.8-.82.49-.13 1.24-.25 2.23-.37 2.02-.24 3.51-.52 4.46-.86.01-.34.02-.56.02-.65 0-1.01-.24-1.73-.71-2.14-.64-.56-1.59-.84-2.85-.84-1.18 0-2.05.21-2.61.62-.56.41-.97 1.14-1.24 2.19l-2.44-.34c.22-1.05.59-1.89 1.1-2.54.51-.64 1.25-1.14 2.22-1.49.96-.35 2.08-.52 3.35-.52 1.26 0 2.29.15 3.08.45.79.3 1.37.67 1.74 1.12.37.45.63 1.02.78 1.7.08.43.12 1.19.12 2.3v3.31c0 2.31.05 3.78.16 4.4.1.62.31 1.21.61 1.78h-2.61c-.25-.52-.41-1.14-.48-1.85zm-.2-5.54c-.91.37-2.27.68-4.09.94-1.03.15-1.76.31-2.19.5-.43.18-.75.45-.99.8-.23.35-.35.75-.35 1.18 0 .66.25 1.21.76 1.65.51.44 1.25.66 2.22.66.96 0 1.82-.21 2.57-.63.75-.42 1.3-.99 1.65-1.71.27-.56.4-1.39.4-2.48l.02-.91zm15.99 1.99l2.44.34c-.27 1.68-.95 2.99-2.05 3.94-1.1.95-2.46 1.42-4.07 1.42-2.01 0-3.63-.66-4.85-1.97-1.23-1.31-1.84-3.2-1.84-5.65 0-1.59.27-2.98.79-4.17s1.33-2.08 2.4-2.67c1.07-.6 2.24-.89 3.51-.89 1.59 0 2.91.4 3.92 1.21 1.02.81 1.67 1.96 1.96 3.45l-2.41.37c-.23-.99-.64-1.73-1.23-2.23s-1.3-.75-2.13-.75c-1.26 0-2.28.45-3.07 1.35-.79.91-1.18 2.32-1.18 4.28 0 1.98.38 3.41 1.14 4.31.76.9 1.75 1.34 2.97 1.34.98 0 1.8-.3 2.46-.9.66-.6 1.07-1.52 1.25-2.76zm10 3.17l.34 2.21c-.7.15-1.33.22-1.88.22-.91 0-1.61-.14-2.11-.43-.5-.29-.85-.66-1.05-1.13-.2-.47-.3-1.45-.3-2.95v-8.49h-1.84v-1.93h1.84v-3.64l2.5-1.5v5.14h2.5v1.93h-2.5v8.63c0 .72.04 1.17.13 1.38.09.2.23.37.43.49.2.12.48.18.85.18.27 0 .64-.03 1.09-.1zm12.09.38c-.93.79-1.82 1.34-2.68 1.67-.86.33-1.77.49-2.76.49-1.62 0-2.86-.39-3.74-1.18-.87-.79-1.3-1.79-1.3-3.02a4.08 4.08 0 011.78-3.4c.53-.36 1.13-.64 1.8-.82.49-.13 1.24-.25 2.23-.37 2.02-.24 3.51-.52 4.46-.86.01-.34.02-.56.02-.65 0-1.01-.24-1.73-.71-2.14-.64-.56-1.59-.84-2.85-.84-1.18 0-2.05.21-2.61.62-.56.41-.97 1.14-1.24 2.19l-2.44-.34c.22-1.05.59-1.89 1.1-2.54.51-.64 1.25-1.14 2.22-1.49.96-.35 2.08-.52 3.35-.52 1.26 0 2.29.15 3.08.45.79.3 1.37.67 1.74 1.12.37.45.63 1.02.78 1.7.08.43.12 1.19.12 2.3v3.31c0 2.31.05 3.78.16 4.4.1.62.31 1.21.61 1.78h-2.61c-.25-.52-.41-1.14-.48-1.85zm-.2-5.54c-.91.37-2.27.68-4.09.94-1.03.15-1.76.31-2.19.5-.43.18-.75.45-.99.8-.23.35-.35.75-.35 1.18 0 .66.25 1.21.76 1.65.51.44 1.25.66 2.22.66.96 0 1.82-.21 2.57-.63.75-.42 1.3-.99 1.65-1.71.27-.56.4-1.39.4-2.48l.02-.91zm5.37 2.98l2.47-.4c.14.99.52 1.75 1.16 2.28.63.52 1.52.79 2.66.79 1.15 0 2-.23 2.56-.7.55-.46.83-1.01.83-1.64 0-.56-.25-1.01-.75-1.33-.35-.22-1.2-.5-2.55-.85-1.83-.46-3.09-.86-3.8-1.19-.71-.34-1.24-.8-1.6-1.4-.37-.59-.55-1.25-.55-1.97 0-.66.15-1.26.45-1.82.3-.56.71-1.02 1.23-1.39.39-.29.92-.53 1.59-.72.67-.2 1.39-.3 2.15-.3 1.15 0 2.17.17 3.04.5.87.33 1.52.79 1.93 1.35.41.57.7 1.33.86 2.29l-2.44.34c-.11-.77-.43-1.37-.96-1.8-.53-.43-1.28-.64-2.25-.64-1.14 0-1.96.19-2.45.57-.49.38-.73.82-.73 1.33 0 .32.1.62.3.88.2.26.52.49.96.66.25.1.98.31 2.2.64 1.76.47 2.99.86 3.69 1.15.7.3 1.25.74 1.65 1.31.4.57.6 1.28.6 2.13 0 .83-.24 1.61-.73 2.34-.49.73-1.19 1.3-2.1 1.7-.92.4-1.95.6-3.11.6-1.91 0-3.37-.4-4.38-1.19-1-.8-1.64-1.97-1.92-3.53zm15.85 4.4v-2.84h2.84v2.84c0 1.05-.18 1.89-.56 2.54-.37.64-.96 1.14-1.77 1.49l-.68-1.08c.53-.23.92-.57 1.17-1.02.25-.45.39-1.09.42-1.94h-1.42zm15.58 0v-20.33h13.72v2.39h-11.02v6.33h9.54v2.39h-9.54v9.23h-2.7zm23.79-4.4l2.47-.4c.14.99.52 1.75 1.16 2.28.63.52 1.52.79 2.66.79 1.15 0 2-.23 2.56-.7.55-.46.83-1.01.83-1.64 0-.56-.25-1.01-.75-1.33-.35-.22-1.2-.5-2.55-.85-1.83-.46-3.09-.86-3.8-1.19-.71-.34-1.24-.8-1.6-1.4-.37-.59-.55-1.25-.55-1.97 0-.66.15-1.26.45-1.82.3-.56.71-1.02 1.23-1.39.39-.29.92-.53 1.59-.72.67-.2 1.39-.3 2.15-.3 1.15 0 2.17.17 3.04.5.87.33 1.52.79 1.93 1.35.41.57.7 1.33.86 2.29l-2.44.34c-.11-.77-.43-1.37-.96-1.8-.53-.43-1.28-.64-2.25-.64-1.14 0-1.96.19-2.45.57-.49.38-.73.82-.73 1.33 0 .32.1.62.3.88.2.26.52.49.96.66.25.1.98.31 2.2.64 1.76.47 2.99.86 3.69 1.15.7.3 1.25.74 1.65 1.31.4.57.6 1.28.6 2.13 0 .83-.24 1.61-.73 2.34-.49.73-1.19 1.3-2.1 1.7-.92.4-1.95.6-3.11.6-1.91 0-3.37-.4-4.38-1.19-1-.8-1.64-1.97-1.92-3.53zm15.19-13.09v-2.84h2.5v2.84h-2.5zm0 17.49v-14.74h2.5v14.74h-2.5zm15.93-5.4l2.44.34c-.27 1.68-.95 2.99-2.05 3.94-1.1.95-2.46 1.42-4.07 1.42-2.01 0-3.63-.66-4.85-1.97-1.23-1.31-1.84-3.2-1.84-5.65 0-1.59.27-2.98.79-4.17s1.33-2.08 2.4-2.67c1.07-.6 2.24-.89 3.51-.89 1.59 0 2.91.4 3.92 1.21 1.02.81 1.67 1.96 1.96 3.45l-2.41.37c-.23-.99-.64-1.73-1.23-2.23s-1.3-.75-2.13-.75c-1.26 0-2.28.45-3.07 1.35-.79.91-1.18 2.32-1.18 4.28 0 1.98.38 3.41 1.14 4.31.76.9 1.75 1.34 2.97 1.34.98 0 1.8-.3 2.46-.9.66-.6 1.07-1.52 1.25-2.76zm14.2 3.55c-.93.79-1.82 1.34-2.68 1.67-.86.33-1.77.49-2.76.49-1.62 0-2.86-.39-3.74-1.18-.87-.79-1.3-1.79-1.3-3.02a4.08 4.08 0 011.78-3.4c.53-.36 1.13-.64 1.8-.82.49-.13 1.24-.25 2.23-.37 2.02-.24 3.51-.52 4.46-.86.01-.34.02-.56.02-.65 0-1.01-.24-1.73-.71-2.14-.64-.56-1.59-.84-2.85-.84-1.18 0-2.05.21-2.61.62-.56.41-.97 1.14-1.24 2.19l-2.44-.34c.22-1.05.59-1.89 1.1-2.54.51-.64 1.25-1.14 2.22-1.49.96-.35 2.08-.52 3.35-.52 1.26 0 2.29.15 3.08.45.79.3 1.37.67 1.74 1.12.37.45.63 1.02.78 1.7.08.43.12 1.19.12 2.3v3.31c0 2.31.05 3.78.16 4.4.1.62.31 1.21.61 1.78h-2.61c-.25-.52-.41-1.14-.48-1.85zm-.2-5.54c-.91.37-2.27.68-4.09.94-1.03.15-1.76.31-2.19.5-.43.18-.75.45-.99.8-.23.35-.35.75-.35 1.18 0 .66.25 1.21.76 1.65.51.44 1.25.66 2.22.66.96 0 1.82-.21 2.57-.63.75-.42 1.3-.99 1.65-1.71.27-.56.4-1.39.4-2.48l.02-.91zM471.83 212.3l2.47-.4c.14.99.52 1.75 1.16 2.28.63.52 1.52.79 2.66.79 1.15 0 2-.23 2.56-.7.55-.46.83-1.01.83-1.64 0-.56-.25-1.01-.75-1.33-.35-.22-1.2-.5-2.55-.85-1.83-.46-3.09-.86-3.8-1.19-.71-.34-1.24-.8-1.6-1.4-.37-.59-.55-1.25-.55-1.97 0-.66.15-1.26.45-1.82.3-.56.71-1.02 1.23-1.39.39-.29.92-.53 1.59-.72.67-.2 1.39-.3 2.15-.3 1.15 0 2.17.17 3.04.5.87.33 1.52.79 1.93 1.35.41.57.7 1.33.86 2.29l-2.44.34c-.11-.77-.43-1.37-.96-1.8-.53-.43-1.28-.64-2.25-.64-1.14 0-1.96.19-2.45.57-.49.38-.73.82-.73 1.33 0 .32.1.62.3.88.2.26.52.49.96.66.25.1.98.31 2.2.64 1.76.47 2.99.86 3.69 1.15.7.3 1.25.74 1.65 1.31.4.57.6 1.28.6 2.13 0 .83-.24 1.61-.73 2.34-.49.73-1.19 1.3-2.1 1.7-.92.4-1.95.6-3.11.6-1.91 0-3.37-.4-4.38-1.19-1-.8-1.64-1.97-1.92-3.53zm22.97 10.07l-.29-2.31c.55.15 1.02.22 1.43.22.56 0 1-.09 1.34-.28.34-.18.61-.45.82-.78.16-.25.41-.87.76-1.86.05-.14.12-.34.22-.61l-5.6-14.79h2.67l3.08 8.51c.4 1.07.76 2.21 1.07 3.4.29-1.12.63-2.23 1.03-3.32l3.14-8.6h2.49l-5.57 14.99c-.6 1.61-1.07 2.72-1.41 3.33-.45.82-.96 1.42-1.53 1.8-.58.38-1.26.57-2.06.57-.48 0-1.02-.1-1.61-.3zm22.49-5.67v-20.33h2.76l10.67 15.96v-15.96h2.58v20.33h-2.76l-10.67-15.96v15.96h-2.58zm29.85-1.85c-.93.79-1.82 1.34-2.68 1.67-.86.33-1.77.49-2.76.49-1.62 0-2.86-.39-3.74-1.18-.87-.79-1.3-1.79-1.3-3.02a4.08 4.08 0 011.78-3.4c.53-.36 1.13-.64 1.8-.82.49-.13 1.24-.25 2.23-.37 2.02-.24 3.51-.52 4.46-.86.01-.34.02-.56.02-.65 0-1.01-.24-1.73-.71-2.14-.64-.56-1.59-.84-2.85-.84-1.18 0-2.05.21-2.61.62-.56.41-.97 1.14-1.24 2.19l-2.44-.34c.22-1.05.59-1.89 1.1-2.54.51-.64 1.25-1.14 2.22-1.49.96-.35 2.08-.52 3.35-.52 1.26 0 2.29.15 3.08.45.79.3 1.37.67 1.74 1.12.37.45.63 1.02.78 1.7.08.43.12 1.19.12 2.3v3.31c0 2.31.05 3.78.16 4.4.1.62.31 1.21.61 1.78h-2.61c-.25-.52-.41-1.14-.48-1.85zm-.2-5.54c-.91.37-2.27.68-4.09.94-1.03.15-1.76.31-2.19.5-.43.18-.75.45-.99.8-.23.35-.35.75-.35 1.18 0 .66.25 1.21.76 1.65.51.44 1.25.66 2.22.66.96 0 1.82-.21 2.57-.63.75-.42 1.3-.99 1.65-1.71.27-.56.4-1.39.4-2.48l.02-.91zm11.79 5.15l.34 2.21c-.7.15-1.33.22-1.88.22-.91 0-1.61-.14-2.11-.43-.5-.29-.85-.66-1.05-1.13-.2-.47-.3-1.45-.3-2.95v-8.49h-1.84v-1.93h1.84v-3.64l2.5-1.5v5.14h2.5v1.93h-2.5v8.63c0 .72.04 1.17.13 1.38.09.2.23.37.43.49.2.12.48.18.85.18.27 0 .64-.03 1.09-.1zm12.09 2.23v-2.19c-1.14 1.67-2.7 2.5-4.66 2.5-.87 0-1.68-.17-2.43-.5-.75-.34-1.31-.75-1.68-1.26-.36-.51-.62-1.12-.77-1.85-.1-.49-.15-1.27-.15-2.33v-9.12h2.5v8.16c0 1.3.05 2.18.15 2.63.16.66.49 1.17 1 1.54.51.37 1.13.56 1.88.56s1.45-.19 2.1-.57c.65-.38 1.12-.91 1.39-1.57.27-.66.41-1.62.41-2.87v-7.88h2.5v14.74h-2.24zm6.14 0v-14.74h2.24v2.26c.57-1.05 1.1-1.74 1.59-2.07.49-.34 1.02-.5 1.61-.5.84 0 1.7.26 2.57.79l-.89 2.31c-.61-.34-1.21-.51-1.82-.51a2.4 2.4 0 00-1.46.49c-.43.33-.74.78-.92 1.36-.28.89-.42 1.86-.42 2.91v7.7h-2.5zm19.11-1.85c-.93.79-1.82 1.34-2.68 1.67-.86.33-1.77.49-2.76.49-1.62 0-2.86-.39-3.74-1.18-.87-.79-1.3-1.79-1.3-3.02a4.08 4.08 0 011.78-3.4c.53-.36 1.13-.64 1.8-.82.49-.13 1.24-.25 2.23-.37 2.02-.24 3.51-.52 4.46-.86.01-.34.02-.56.02-.65 0-1.01-.24-1.73-.71-2.14-.64-.56-1.59-.84-2.85-.84-1.18 0-2.05.21-2.61.62-.56.41-.97 1.14-1.24 2.19l-2.44-.34c.22-1.05.59-1.89 1.1-2.54.51-.64 1.25-1.14 2.22-1.49.96-.35 2.08-.52 3.35-.52 1.26 0 2.29.15 3.08.45.79.3 1.37.67 1.74 1.12.37.45.63 1.02.78 1.7.08.43.12 1.19.12 2.3v3.31c0 2.31.05 3.78.16 4.4.1.62.31 1.21.61 1.78h-2.61c-.25-.52-.41-1.14-.48-1.85zm-.2-5.54c-.91.37-2.27.68-4.09.94-1.03.15-1.76.31-2.19.5-.43.18-.75.45-.99.8-.23.35-.35.75-.35 1.18 0 .66.25 1.21.76 1.65.51.44 1.25.66 2.22.66.96 0 1.82-.21 2.57-.63.75-.42 1.3-.99 1.65-1.71.27-.56.4-1.39.4-2.48l.02-.91zm6.31 7.38v-20.33h2.5v20.33h-2.5zm16.42-4.77l2.58.34c-.4 1.5-1.15 2.67-2.25 3.5-1.1.83-2.5 1.24-4.21 1.24-2.15 0-3.85-.66-5.11-1.99-1.26-1.32-1.89-3.18-1.89-5.57 0-2.47.64-4.39 1.91-5.76s2.93-2.05 4.96-2.05c1.96 0 3.57.67 4.81 2.01 1.25 1.34 1.87 3.22 1.87 5.65 0 .15 0 .37-.01.66h-10.98c.1 1.61.55 2.85 1.37 3.71.82.86 1.85 1.29 3.07 1.29.91 0 1.69-.24 2.34-.72.65-.48 1.16-1.25 1.54-2.31zm-8.18-4h8.21c-.11-1.24-.43-2.17-.94-2.79-.79-.96-1.82-1.44-3.08-1.44-1.15 0-2.11.38-2.89 1.15-.78.77-1.21 1.79-1.29 3.08zm12.93 4.37l2.47-.4c.14.99.52 1.75 1.16 2.28.63.52 1.52.79 2.66.79 1.15 0 2-.23 2.56-.7.55-.46.83-1.01.83-1.64 0-.56-.25-1.01-.75-1.33-.35-.22-1.2-.5-2.55-.85-1.83-.46-3.09-.86-3.8-1.19-.71-.34-1.24-.8-1.6-1.4-.37-.59-.55-1.25-.55-1.97 0-.66.15-1.26.45-1.82.3-.56.71-1.02 1.23-1.39.39-.29.92-.53 1.59-.72.67-.2 1.39-.3 2.15-.3 1.15 0 2.17.17 3.04.5.87.33 1.52.79 1.93 1.35.41.57.7 1.33.86 2.29l-2.44.34c-.11-.77-.43-1.37-.96-1.8-.53-.43-1.28-.64-2.25-.64-1.14 0-1.96.19-2.45.57-.49.38-.73.82-.73 1.33 0 .32.1.62.3.88.2.26.52.49.96.66.25.1.98.31 2.2.64 1.76.47 2.99.86 3.69 1.15.7.3 1.25.74 1.65 1.31.4.57.6 1.28.6 2.13 0 .83-.24 1.61-.73 2.34-.49.73-1.19 1.3-2.1 1.7-.92.4-1.95.6-3.11.6-1.91 0-3.37-.4-4.38-1.19-1-.8-1.64-1.97-1.92-3.53zm-504.74 15.79h2.7v11.74c0 2.04-.23 3.67-.69 4.87-.46 1.2-1.3 2.18-2.5 2.93-1.21.75-2.78 1.13-4.74 1.13-1.9 0-3.45-.33-4.66-.98-1.21-.66-2.07-1.61-2.59-2.85s-.78-2.94-.78-5.1v-11.74h2.7v11.74c0 1.76.17 3.07.49 3.9.33.84.88 1.49 1.69 1.94.8.45 1.77.68 2.92.68 1.97 0 3.38-.45 4.21-1.34.84-.9 1.26-2.62 1.26-5.18v-11.74zm6.88 20.33v-14.74h2.24v2.09c1.08-1.6 2.64-2.4 4.68-2.4.89 0 1.7.16 2.45.48.74.32 1.3.74 1.67 1.26.37.52.63 1.13.78 1.84.09.46.14 1.27.14 2.43v9.05h-2.5v-8.96c0-1.02-.1-1.78-.29-2.28-.19-.5-.54-.9-1.03-1.21-.49-.3-1.07-.45-1.74-.45-1.06 0-1.97.34-2.74 1.01-.77.67-1.15 1.96-1.15 3.84v8.04h-2.5zm15.8-17.49v-2.84h2.5v2.84h-2.5zm0 17.49v-14.74h2.5v14.74h-2.5zm10.34 0l-5.56-14.74h2.67l3.15 8.83c.34.95.66 1.94.95 2.97.22-.78.53-1.71.93-2.8l3.28-8.99h2.57l-5.58 14.74h-2.41zm20.23-4.77l2.58.34c-.4 1.5-1.15 2.67-2.25 3.5-1.1.83-2.5 1.24-4.21 1.24-2.15 0-3.85-.66-5.11-1.99-1.26-1.32-1.89-3.18-1.89-5.57 0-2.47.64-4.39 1.91-5.76s2.93-2.05 4.96-2.05c1.96 0 3.57.67 4.81 2.01 1.25 1.34 1.87 3.22 1.87 5.65 0 .15 0 .37-.01.66h-10.98c.1 1.61.55 2.85 1.37 3.71.82.86 1.85 1.29 3.07 1.29.91 0 1.69-.24 2.34-.72.65-.48 1.16-1.25 1.54-2.31zm-8.18-4h8.21c-.11-1.24-.43-2.17-.94-2.79-.79-.96-1.82-1.44-3.08-1.44-1.15 0-2.11.38-2.89 1.15-.78.77-1.21 1.79-1.29 3.08zm13.89 8.78v-14.74h2.24v2.26c.57-1.05 1.1-1.74 1.59-2.07.49-.34 1.02-.5 1.61-.5.84 0 1.7.26 2.57.79l-.89 2.31c-.61-.34-1.21-.51-1.82-.51a2.4 2.4 0 00-1.46.49c-.43.33-.74.78-.92 1.36-.28.89-.42 1.86-.42 2.91v7.7h-2.5zm8.49-4.4l2.47-.4c.14.99.52 1.75 1.16 2.28.63.52 1.52.79 2.66.79 1.15 0 2-.23 2.56-.7.55-.46.83-1.01.83-1.64 0-.56-.25-1.01-.75-1.33-.35-.22-1.2-.5-2.55-.85-1.83-.46-3.09-.86-3.8-1.19-.71-.34-1.24-.8-1.6-1.4-.37-.59-.55-1.25-.55-1.97 0-.66.15-1.26.45-1.82.3-.56.71-1.02 1.23-1.39.39-.29.92-.53 1.59-.72.67-.2 1.39-.3 2.15-.3 1.15 0 2.17.17 3.04.5.87.33 1.52.79 1.93 1.35.41.57.7 1.33.86 2.29l-2.44.34c-.11-.77-.43-1.37-.96-1.8-.53-.43-1.28-.64-2.25-.64-1.14 0-1.96.19-2.45.57-.49.38-.73.82-.73 1.33 0 .32.1.62.3.88.2.26.52.49.96.66.25.1.98.31 2.2.64 1.76.47 2.99.86 3.69 1.15.7.3 1.25.74 1.65 1.31.4.57.6 1.28.6 2.13 0 .83-.24 1.61-.73 2.34-.49.73-1.19 1.3-2.1 1.7-.92.4-1.95.6-3.11.6-1.91 0-3.37-.4-4.38-1.19-1-.8-1.64-1.97-1.92-3.53zm15.19-13.09v-2.84h2.5v2.84h-2.5zm0 17.49v-14.74h2.5v14.74h-2.5zm15.82 0v-1.87c-.93 1.45-2.31 2.18-4.12 2.18-1.18 0-2.25-.32-3.23-.97-.99-.64-1.75-1.55-2.29-2.7-.54-1.16-.81-2.49-.81-3.99 0-1.47.25-2.8.73-4 .49-1.19 1.23-2.11 2.21-2.74.98-.64 2.07-.96 3.28-.96.89 0 1.68.19 2.37.56.69.37 1.25.87 1.69 1.47v-7.31h2.5v20.33h-2.33zm-7.89-7.35c0 1.88.4 3.29 1.2 4.22.8.93 1.74 1.4 2.82 1.4 1.09 0 2.02-.45 2.79-1.34.76-.89 1.15-2.25 1.15-4.07 0-2.01-.39-3.48-1.17-4.43-.78-.94-1.74-1.41-2.88-1.41-1.11 0-2.04.45-2.79 1.35-.74.9-1.12 2.33-1.12 4.27zm23.8 5.5c-.93.79-1.82 1.34-2.68 1.67-.86.33-1.77.49-2.76.49-1.62 0-2.86-.39-3.74-1.18-.87-.79-1.3-1.79-1.3-3.02a4.08 4.08 0 011.78-3.4c.53-.36 1.13-.64 1.8-.82.49-.13 1.24-.25 2.23-.37 2.02-.24 3.51-.52 4.46-.86.01-.34.02-.56.02-.65 0-1.01-.24-1.73-.71-2.14-.64-.56-1.59-.84-2.85-.84-1.18 0-2.05.21-2.61.62-.56.41-.97 1.14-1.24 2.19l-2.44-.34c.22-1.05.59-1.89 1.1-2.54.51-.64 1.25-1.14 2.22-1.49.96-.35 2.08-.52 3.35-.52 1.26 0 2.29.15 3.08.45.79.3 1.37.67 1.74 1.12.37.45.63 1.02.78 1.7.08.43.12 1.19.12 2.3v3.31c0 2.31.05 3.78.16 4.4.1.62.31 1.21.61 1.78h-2.61c-.25-.52-.41-1.14-.48-1.85zm-.2-5.54c-.91.37-2.27.68-4.09.94-1.03.15-1.76.31-2.19.5-.43.18-.75.45-.99.8-.23.35-.35.75-.35 1.18 0 .66.25 1.21.76 1.65.51.44 1.25.66 2.22.66.96 0 1.82-.21 2.57-.63.75-.42 1.3-.99 1.65-1.71.27-.56.4-1.39.4-2.48l.02-.91zm15.88 7.38v-1.87c-.93 1.45-2.31 2.18-4.12 2.18-1.18 0-2.25-.32-3.23-.97-.99-.64-1.75-1.55-2.29-2.7-.54-1.16-.81-2.49-.81-3.99 0-1.47.25-2.8.73-4 .49-1.19 1.23-2.11 2.21-2.74.98-.64 2.07-.96 3.28-.96.89 0 1.68.19 2.37.56.69.37 1.25.87 1.69 1.47v-7.31h2.5v20.33h-2.33zm-7.89-7.35c0 1.88.4 3.29 1.2 4.22.8.93 1.74 1.4 2.82 1.4 1.09 0 2.02-.45 2.79-1.34.76-.89 1.15-2.25 1.15-4.07 0-2.01-.39-3.48-1.17-4.43-.78-.94-1.74-1.41-2.88-1.41-1.11 0-2.04.45-2.79 1.35-.74.9-1.12 2.33-1.12 4.27zm22.35 7.35v-20.33h2.76l10.67 15.96v-15.96h2.58v20.33h-2.76l-10.67-15.96v15.96h-2.58zm29.85-1.85c-.93.79-1.82 1.34-2.68 1.67-.86.33-1.77.49-2.76.49-1.62 0-2.86-.39-3.74-1.18-.87-.79-1.3-1.79-1.3-3.02a4.08 4.08 0 011.78-3.4c.53-.36 1.13-.64 1.8-.82.49-.13 1.24-.25 2.23-.37 2.02-.24 3.51-.52 4.46-.86.01-.34.02-.56.02-.65 0-1.01-.24-1.73-.71-2.14-.64-.56-1.59-.84-2.85-.84-1.18 0-2.05.21-2.61.62-.56.41-.97 1.14-1.24 2.19l-2.44-.34c.22-1.05.59-1.89 1.1-2.54.51-.64 1.25-1.14 2.22-1.49.96-.35 2.08-.52 3.35-.52 1.26 0 2.29.15 3.08.45.79.3 1.37.67 1.74 1.12.37.45.63 1.02.78 1.7.08.43.12 1.19.12 2.3v3.31c0 2.31.05 3.78.16 4.4.1.62.31 1.21.61 1.78h-2.61c-.25-.52-.41-1.14-.48-1.85zm-.2-5.54c-.91.37-2.27.68-4.09.94-1.03.15-1.76.31-2.19.5-.43.18-.75.45-.99.8-.23.35-.35.75-.35 1.18 0 .66.25 1.21.76 1.65.51.44 1.25.66 2.22.66.96 0 1.82-.21 2.57-.63.75-.42 1.3-.99 1.65-1.71.27-.56.4-1.39.4-2.48l.02-.91zm15.99 1.99l2.44.34c-.27 1.68-.95 2.99-2.05 3.94-1.1.95-2.46 1.42-4.07 1.42-2.01 0-3.63-.66-4.85-1.97-1.23-1.31-1.84-3.2-1.84-5.65 0-1.59.27-2.98.79-4.17s1.33-2.08 2.4-2.67c1.07-.6 2.24-.89 3.51-.89 1.59 0 2.91.4 3.92 1.21 1.02.81 1.67 1.96 1.96 3.45l-2.41.37c-.23-.99-.64-1.73-1.23-2.23s-1.3-.75-2.13-.75c-1.26 0-2.28.45-3.07 1.35-.79.91-1.18 2.32-1.18 4.28 0 1.98.38 3.41 1.14 4.31.76.9 1.75 1.34 2.97 1.34.98 0 1.8-.3 2.46-.9.66-.6 1.07-1.52 1.25-2.76zm4.57-12.1v-2.84h2.5v2.84h-2.5zm0 17.49v-14.74h2.5v14.74h-2.5zm5.37-7.37c0-2.72.76-4.74 2.28-6.05 1.26-1.09 2.81-1.63 4.63-1.63 2.02 0 3.68.66 4.97 1.99 1.28 1.32 1.93 3.15 1.93 5.49 0 1.89-.29 3.38-.85 4.46a6.071 6.071 0 01-2.49 2.53c-1.08.6-2.27.9-3.55.9-2.06 0-3.73-.66-5-1.98-1.27-1.32-1.91-3.22-1.91-5.7zm2.56.01c0 1.88.41 3.29 1.23 4.23.83.94 1.87 1.41 3.12 1.41 1.24 0 2.27-.47 3.1-1.41.82-.94 1.24-2.38 1.24-4.3 0-1.82-.42-3.2-1.25-4.13-.83-.94-1.86-1.41-3.09-1.41-1.25 0-2.29.46-3.12 1.4-.82.93-1.23 2.34-1.23 4.22zm14.18 7.36v-14.74h2.24v2.09c1.08-1.6 2.64-2.4 4.68-2.4.89 0 1.7.16 2.45.48.74.32 1.3.74 1.67 1.26.37.52.63 1.13.78 1.84.09.46.14 1.27.14 2.43v9.05h-2.5v-8.96c0-1.02-.1-1.78-.29-2.28-.19-.5-.54-.9-1.03-1.21-.49-.3-1.07-.45-1.74-.45-1.06 0-1.97.34-2.74 1.01-.77.67-1.15 1.96-1.15 3.84v8.04h-2.5zm25.42-1.85c-.93.79-1.82 1.34-2.68 1.67-.86.33-1.77.49-2.76.49-1.62 0-2.86-.39-3.74-1.18-.87-.79-1.3-1.79-1.3-3.02a4.08 4.08 0 011.78-3.4c.53-.36 1.13-.64 1.8-.82.49-.13 1.24-.25 2.23-.37 2.02-.24 3.51-.52 4.46-.86.01-.34.02-.56.02-.65 0-1.01-.24-1.73-.71-2.14-.64-.56-1.59-.84-2.85-.84-1.18 0-2.05.21-2.61.62-.56.41-.97 1.14-1.24 2.19l-2.44-.34c.22-1.05.59-1.89 1.1-2.54.51-.64 1.25-1.14 2.22-1.49.96-.35 2.08-.52 3.35-.52 1.26 0 2.29.15 3.08.45.79.3 1.37.67 1.74 1.12.37.45.63 1.02.78 1.7.08.43.12 1.19.12 2.3v3.31c0 2.31.05 3.78.16 4.4.1.62.31 1.21.61 1.78h-2.61c-.25-.52-.41-1.14-.48-1.85zm-.2-5.54c-.91.37-2.27.68-4.09.94-1.03.15-1.76.31-2.19.5-.43.18-.75.45-.99.8-.23.35-.35.75-.35 1.18 0 .66.25 1.21.76 1.65.51.44 1.25.66 2.22.66.96 0 1.82-.21 2.57-.63.75-.42 1.3-.99 1.65-1.71.27-.56.4-1.39.4-2.48l.02-.91zm6.31 7.38v-20.33h2.5v20.33h-2.5zm23.77 0v-1.87c-.93 1.45-2.31 2.18-4.12 2.18-1.18 0-2.25-.32-3.23-.97-.99-.64-1.75-1.55-2.29-2.7-.54-1.16-.81-2.49-.81-3.99 0-1.47.25-2.8.73-4 .49-1.19 1.23-2.11 2.21-2.74.98-.64 2.07-.96 3.28-.96.89 0 1.68.19 2.37.56.69.37 1.25.87 1.69 1.47v-7.31h2.5v20.33h-2.33zm-7.89-7.35c0 1.88.4 3.29 1.2 4.22.8.93 1.74 1.4 2.82 1.4 1.09 0 2.02-.45 2.79-1.34.76-.89 1.15-2.25 1.15-4.07 0-2.01-.39-3.48-1.17-4.43-.78-.94-1.74-1.41-2.88-1.41-1.11 0-2.04.45-2.79 1.35-.74.9-1.12 2.33-1.12 4.27zm24.23 2.58l2.58.34c-.4 1.5-1.15 2.67-2.25 3.5-1.1.83-2.5 1.24-4.21 1.24-2.15 0-3.85-.66-5.11-1.99-1.26-1.32-1.89-3.18-1.89-5.57 0-2.47.64-4.39 1.91-5.76s2.93-2.05 4.96-2.05c1.96 0 3.57.67 4.81 2.01 1.25 1.34 1.87 3.22 1.87 5.65 0 .15 0 .37-.01.66h-10.98c.1 1.61.55 2.85 1.37 3.71.82.86 1.85 1.29 3.07 1.29.91 0 1.69-.24 2.34-.72.65-.48 1.16-1.25 1.54-2.31zm-8.18-4h8.21c-.11-1.24-.43-2.17-.94-2.79-.79-.96-1.82-1.44-3.08-1.44-1.15 0-2.11.38-2.89 1.15-.78.77-1.21 1.79-1.29 3.08zM420.15 241.9l2.53-.23c.12 1.02.4 1.86.84 2.52.44.65 1.12 1.18 2.04 1.59.92.4 1.96.61 3.12.61 1.03 0 1.93-.15 2.72-.46.79-.31 1.37-.73 1.75-1.26.38-.53.58-1.12.58-1.74 0-.63-.18-1.19-.55-1.67-.37-.47-.98-.87-1.83-1.2-.54-.21-1.75-.54-3.62-.99-1.87-.45-3.18-.87-3.92-1.27-.97-.51-1.69-1.14-2.16-1.9-.48-.75-.72-1.6-.72-2.53 0-1.03.29-1.99.87-2.88.58-.89 1.43-1.57 2.55-2.04 1.12-.46 2.36-.69 3.73-.69 1.5 0 2.84.24 3.98.73 1.15.48 2.04 1.2 2.66 2.14.62.94.95 2.01 1 3.2l-2.58.2c-.14-1.28-.61-2.25-1.41-2.91-.8-.66-1.98-.98-3.55-.98-1.63 0-2.82.3-3.56.89-.74.6-1.12 1.32-1.12 2.16 0 .73.26 1.33.79 1.8.52.47 1.87.96 4.06 1.45 2.19.5 3.69.93 4.5 1.3 1.18.54 2.05 1.23 2.62 2.07.56.83.84 1.79.84 2.88 0 1.08-.31 2.1-.93 3.05-.62.96-1.5 1.7-2.66 2.23-1.16.53-2.46.8-3.91.8-1.84 0-3.37-.27-4.61-.8-1.25-.53-2.22-1.34-2.92-2.42-.71-1.07-1.08-2.29-1.12-3.65zm29.14 4.68c-.93.79-1.82 1.34-2.68 1.67-.86.33-1.77.49-2.76.49-1.62 0-2.86-.39-3.74-1.18-.87-.79-1.3-1.79-1.3-3.02a4.08 4.08 0 011.78-3.4c.53-.36 1.13-.64 1.8-.82.49-.13 1.24-.25 2.23-.37 2.02-.24 3.51-.52 4.46-.86.01-.34.02-.56.02-.65 0-1.01-.24-1.73-.71-2.14-.64-.56-1.59-.84-2.85-.84-1.18 0-2.05.21-2.61.62-.56.41-.97 1.14-1.24 2.19l-2.44-.34c.22-1.05.59-1.89 1.1-2.54.51-.64 1.25-1.14 2.22-1.49.96-.35 2.08-.52 3.35-.52 1.26 0 2.29.15 3.08.45.79.3 1.37.67 1.74 1.12.37.45.63 1.02.78 1.7.08.43.12 1.19.12 2.3v3.31c0 2.31.05 3.78.16 4.4.1.62.31 1.21.61 1.78h-2.61c-.25-.52-.41-1.14-.48-1.85zm-.2-5.54c-.91.37-2.27.68-4.09.94-1.03.15-1.76.31-2.19.5-.43.18-.75.45-.99.8-.23.35-.35.75-.35 1.18 0 .66.25 1.21.76 1.65.51.44 1.25.66 2.22.66.96 0 1.82-.21 2.57-.63.75-.42 1.3-.99 1.65-1.71.27-.56.4-1.39.4-2.48l.02-.91zm6.37 7.38v-14.74h2.24v2.09c1.08-1.6 2.64-2.4 4.68-2.4.89 0 1.7.16 2.45.48.74.32 1.3.74 1.67 1.26.37.52.63 1.13.78 1.84.09.46.14 1.27.14 2.43v9.05h-2.5v-8.96c0-1.02-.1-1.78-.29-2.28-.19-.5-.54-.9-1.03-1.21-.49-.3-1.07-.45-1.74-.45-1.06 0-1.97.34-2.74 1.01-.77.67-1.15 1.96-1.15 3.84v8.04h-2.5zm22.63-5.77l2.41-.33c.07 1.56.36 2.62.87 3.2.52.57 1.24.86 2.15.86.67 0 1.26-.16 1.74-.46.49-.31.83-.73 1.01-1.26.18-.53.28-1.38.28-2.55v-14.02h2.7v13.85c0 1.7-.2 3.01-.61 3.95-.41.93-1.06 1.64-1.96 2.13-.89.49-1.94.73-3.13.73-1.78 0-3.15-.51-4.09-1.54-.95-1.03-1.4-2.55-1.36-4.58zm24.88 5.77v-2.19c-1.14 1.67-2.7 2.5-4.66 2.5-.87 0-1.68-.17-2.43-.5-.75-.34-1.31-.75-1.68-1.26-.36-.51-.62-1.12-.77-1.85-.1-.49-.15-1.27-.15-2.33v-9.12h2.5v8.16c0 1.3.05 2.18.15 2.63.16.66.49 1.17 1 1.54.51.37 1.13.56 1.88.56s1.45-.19 2.1-.57c.65-.38 1.12-.91 1.39-1.57.27-.66.41-1.62.41-2.87v-7.88h2.5v14.74h-2.24zm15.8-1.85c-.93.79-1.82 1.34-2.68 1.67-.86.33-1.77.49-2.76.49-1.62 0-2.86-.39-3.74-1.18-.87-.79-1.3-1.79-1.3-3.02a4.08 4.08 0 011.78-3.4c.53-.36 1.13-.64 1.8-.82.49-.13 1.24-.25 2.23-.37 2.02-.24 3.51-.52 4.46-.86.01-.34.02-.56.02-.65 0-1.01-.24-1.73-.71-2.14-.64-.56-1.59-.84-2.85-.84-1.18 0-2.05.21-2.61.62-.56.41-.97 1.14-1.24 2.19l-2.44-.34c.22-1.05.59-1.89 1.1-2.54.51-.64 1.25-1.14 2.22-1.49.96-.35 2.08-.52 3.35-.52 1.26 0 2.29.15 3.08.45.79.3 1.37.67 1.74 1.12.37.45.63 1.02.78 1.7.08.43.12 1.19.12 2.3v3.31c0 2.31.05 3.78.16 4.4.1.62.31 1.21.61 1.78h-2.61c-.25-.52-.41-1.14-.48-1.85zm-.2-5.54c-.91.37-2.27.68-4.09.94-1.03.15-1.76.31-2.19.5-.43.18-.75.45-.99.8-.23.35-.35.75-.35 1.18 0 .66.25 1.21.76 1.65.51.44 1.25.66 2.22.66.96 0 1.82-.21 2.57-.63.75-.42 1.3-.99 1.65-1.71.27-.56.4-1.39.4-2.48l.02-.91zm6.37 7.38v-14.74h2.24v2.09c1.08-1.6 2.64-2.4 4.68-2.4.89 0 1.7.16 2.45.48.74.32 1.3.74 1.67 1.26.37.52.63 1.13.78 1.84.09.46.14 1.27.14 2.43v9.05h-2.5v-8.96c0-1.02-.1-1.78-.29-2.28-.19-.5-.54-.9-1.03-1.21-.49-.3-1.07-.45-1.74-.45-1.06 0-1.97.34-2.74 1.01-.77.67-1.15 1.96-1.15 3.84v8.04h-2.5zm-109.63-31.73v-14.74h2.5v14.74h-2.5zm-.82-16.56l1.82-3.89h3.29l-3.04 3.89h-2.07zM58.25 65.77l.41.72c.01-.14.06-.23.2-.31l1.3-.75c.35.52.66 1.05.92 1.61l-1.31.75c-.13.07-.24.08-.37.02l.4.71c.02-.15.07-.23.21-.3l2.79-1.59c.14-.08.23-.08.37-.01l-.4-.72c-.02.15-.07.23-.21.31l-1.28.73c-.33-.52-.64-1.05-.92-1.61l1.27-.72c.14-.08.24-.08.37-.02l-.4-.72c-.01.15-.07.23-.2.31l-2.79 1.59c-.14.08-.24.08-.37.01zm24.26-27.1c.11.12.3.84.29 1.06-.14.13-.79.3-1.07.29-.15-.24-.3-.72-.29-1.07.2-.12.71-.31 1.07-.29zm13.55 20.61c.13.11.38.8.39 1.04-.12.14-.75.37-1.04.38-.17-.22-.35-.69-.38-1.03.19-.14.68-.37 1.03-.39zm-36.36-.26c.11.12.27.85.25 1.07-.14.12-.8.27-1.07.25-.14-.25-.26-.73-.25-1.08.2-.11.72-.27 1.07-.24zm34.25-5.43c.2.98.87 1.17 1.34 1.08 1.15-.22.85-1.89 1.69-2.06.24-.05.41 0 .57.1.02.04.07.14.11.3.06.35-.07.68-.38.96.23.11.38.17.64.16.1-.28.11-.6.05-.93-.16-.8-.74-1.04-1.19-.95-1.1.21-.64 1.85-1.76 2.07-.17.03-.4 0-.56-.07a.974.974 0 01-.19-.41c-.1-.52.1-.91.53-1.21v-.01c-.25-.03-.5-.05-.77.02-.08.21-.14.63-.07.96zm-.72-3.2c-.03-.09-.01-.2.12-.25l1.33-.53c.02-.01.04 0 .04.01l.33.82c.08.19.2.39.45.35-.08-.14-.16-.31-.24-.5l-.3-.75c-.01-.02-.02-.05.02-.06l1.08-.44c.15-.06.26-.08.32-.08 0 0 .05.08.1.23.35.85.21 1.09-.14 1.39.31-.03.67-.15.83-.22l-.86-2.13c-.02.1-.07.21-.23.28l-2.99 1.21c-.18.07-.29.02-.38-.03l.89 2.17c.23-.02.65-.14.97-.27v-.01c-.52.02-.9-.1-1.23-.91l-.12-.29zm-1.29-1.95c.01-.15.06-.24.19-.32l2.62-1.64a.65.65 0 01.22-.11l.24.37c.27.44.16.67-.15 1.1.05-.02.09-.04.17-.1.13-.08.55-.38.63-.49-.05-.01-.1-.04-.37-.46l-.98-1.56c-.25-.41-.25-.47-.23-.52-.14.03-.6.28-.72.35-.08.06-.12.08-.16.12h.01c.52-.09.78-.1 1.05.34l.25.38c-.06.07-.12.11-.19.16L91.9 47.7c-.13.08-.23.09-.36.03l.44.69zm.56-5.55l-.73-.78c.02.12 0 .22-.12.34l-2.35 2.22c-.11.1-.23.11-.34.09l.56.6c-.02-.12-.01-.23.12-.33l.99-.95c.02-.02.05-.03.07-.01l.14.15c.14.16.12.32.04.65l-.36 1.12c-.07.17-.08.26-.12.3l.51.55c-.05-.24-.06-.38.04-.68l.44-1.55c.29.13.84.28 1.3-.15.43-.4.41-.94-.18-1.56zm-.29 1.26c-.38.36-.85.36-1.27-.1-.11-.11-.14-.13-.11-.16l.96-.89c.21-.2.3-.23.3-.23.04.04.09.1.16.15.45.48.29.93-.03 1.23zm-2.7-4.02l-.45-.15a.69.69 0 01-.08.21c-.03.04-.08.1-.14.14l-1.62 1.2-1.02.69c-.2.13-.33.14-.5.1l.57.41c-.02-.05 0-.1.03-.14.04-.04.1-.1.17-.16l.7-.56c.07.04.27.16.54.35.28.2.51.39.6.46l-.24.87c-.05.17-.16.27-.24.3l.66.46c-.09-.19-.07-.29.02-.6l.99-3.59zm-1.14 2.33c-.13-.09-.36-.24-.55-.38-.21-.15-.37-.27-.47-.35l.06-.04 1.5-1.14-.54 1.92zm-12.14-1.87c.99-.09 1.26-.74 1.21-1.22-.1-1.17-1.8-1.04-1.87-1.9-.02-.23.04-.41.15-.55.05-.02.16-.06.31-.08.37-.03.67.14.91.48.15-.21.22-.35.24-.61-.27-.13-.58-.17-.92-.14-.82.07-1.1.61-1.07 1.07.1 1.12 1.78.84 1.88 1.97.01.17-.04.4-.13.56-.06.04-.24.12-.43.14-.53.05-.89-.2-1.14-.65h-.02c-.05.24-.1.5-.06.77.2.1.61.2.95.17zm-1.46 0c-.2-.05-.27-.13-.44-.39l-2.14-3.06-.4.26c.04.03.08.11.11.19.01.05.02.13.01.2l-.11 2.02-.12 1.22c-.03.24-.12.35-.25.45l.68-.17c-.06-.02-.07-.07-.08-.12-.02-.04-.02-.13-.02-.23l.02-.9c.07-.02.29-.1.62-.19.33-.08.61-.14.73-.17l.52.74c.1.14.11.29.07.37l.78-.21zm-2.16-.91c-.25.07-.45.11-.57.14v-.08l.08-1.89 1.13 1.64c-.15.05-.41.13-.65.19zm-2.41 2.41l.74-.35c-.14-.03-.22-.09-.29-.23l-1.37-2.9c-.06-.14-.06-.24.01-.37l-.75.35c.15.02.24.08.3.23l1.37 2.9c.06.14.06.24-.01.37zm-.8.34c-.06-.2-.28-.6-.45-.85h-.01c.23.68.09.98-.32 1.26-.77.52-1.62.17-2.19-.66-.35-.5-.47-1.03-.44-1.52.07-.13.23-.32.45-.48.26-.18.64-.3 1.1-.16.04-.19.06-.44-.05-.66-.27.05-.65.18-.95.39-.93.64-1.12 1.84-.38 2.92.61.9 1.58 1.11 2.46.51.39-.26.58-.5.77-.76zm-4.2 1.1l.64.65-.2-.04-3.83-.34.27.23 2.2 2.3c.13.12.15.24.12.42l.5-.5c-.19.06-.29.01-.42-.11l-1.07-1.04-.73-.73.14.03 3.79.31-2.47-2.61c-.12-.12-.15-.24-.12-.42l-.51.51c.2-.05.31-.01.42.11l1.27 1.23zm-2.31 5.01c-.06.08-.16.13-.27.05l-1.21-.76c-.03-.02-.04-.03-.02-.05l.47-.75c.11-.17.21-.39.02-.56-.06.15-.16.32-.26.48l-.43.68c-.01.02-.03.04-.06.02l-.99-.62c-.14-.09-.23-.17-.25-.21 0 0 .04-.08.12-.22.49-.78.76-.81 1.21-.7l.01-.01c-.2-.24-.52-.46-.67-.55l-1.22 1.94c.1-.04.21-.07.35.03l2.73 1.72c.17.1.18.22.19.32l1.25-1.99c-.16-.17-.49-.45-.78-.63l-.01.01c.32.4.45.78-.03 1.53l-.16.26zm-1.03 2.47l.29-.77c-.12.09-.22.1-.37.04l-3-1.14c-.15-.05-.21-.13-.25-.27l-.29.77c.12-.08.23-.1.37-.05l3.01 1.14c.14.06.21.13.25.28zm-.35 1.03c-.17-.1-.61-.26-.91-.33v.01c.63.34.74.66.63 1.14-.19.91-1.06 1.23-2.04 1.02-.6-.14-1.05-.44-1.36-.81a1.59 1.59 0 010-.66c.07-.31.26-.67.68-.88a.964.964 0 00-.47-.44c-.17.23-.35.57-.43.94-.25 1.11.44 2.11 1.72 2.39 1.07.23 1.92-.27 2.15-1.31.1-.46.08-.76.03-1.08zM95.9 67.89c.53-.86.16-1.45-.25-1.71-1-.62-1.9.82-2.64.36-.2-.12-.31-.27-.35-.45.01-.05.04-.16.12-.29.2-.31.51-.46.93-.45-.08-.24-.16-.39-.35-.55-.26.14-.49.37-.67.66-.43.69-.17 1.25.23 1.5.95.59 1.73-.92 2.69-.33.15.1.3.27.37.43 0 .08-.04.27-.14.43-.28.45-.68.6-1.21.53v.01c.16.2.33.38.58.52.2-.1.52-.37.7-.66zm-2.7 2.93c-.06.08-.17.1-.27 0l-1.03-.99c-.02-.02-.02-.04-.01-.05l.62-.64c.14-.14.27-.33.13-.54-.1.13-.22.28-.36.42l-.56.58c-.01.02-.03.03-.05.01l-.85-.8c-.12-.12-.18-.21-.21-.26 0 0 .05-.07.16-.18.64-.67.91-.64 1.33-.45v-.01c-.16-.27-.42-.55-.55-.67l-1.59 1.66c.1-.02.22-.02.34.1l2.33 2.23c.14.14.13.25.12.36l1.63-1.7c-.11-.2-.39-.54-.64-.78l-.01.01c.22.46.26.86-.34 1.49l-.21.22zm-2.74.01c-.72-.9-1.79-.9-2.83-.07l-.88.71c.1-.01.21.01.33.14l2.01 2.52c.12.15.1.26.08.36l.95-.75c.98-.79 1.08-1.98.34-2.91zm-.43 2.72c-.37.29-.56.29-.84-.06l-1.59-2c-.16-.21-.18-.26-.18-.26s.07-.07.19-.17c.94-.75 1.92-.56 2.58.28.62.77.57 1.64-.16 2.22zm-2.37 1.33l-2.73-2.56-.33.34c.04.02.1.1.14.17.03.05.05.11.05.19l.31 2 .14 1.21c.03.24-.03.36-.15.49l.64-.31c-.07-.01-.09-.05-.11-.1-.02-.04-.04-.14-.06-.23l-.17-.88c.08-.05.27-.16.58-.32.3-.16.56-.27.68-.33l.66.62c.13.12.17.27.15.35l.72-.36c-.21-.01-.29-.08-.52-.29zm-1.79-.15c-.22.12-.41.2-.52.25l-.02-.07-.31-1.86 1.45 1.36c-.14.07-.39.21-.6.32zm-2.26.41c-.25-1.13-1.23-1.59-2.52-1.29L80 74.1c.09.04.2.1.24.26l.71 3.15c.04.19-.02.29-.09.36l1.18-.27c1.24-.28 1.84-1.3 1.58-2.46zm-1.57 2.25c-.45.1-.62.02-.73-.42l-.56-2.5c-.05-.26-.03-.31-.03-.31s.08-.04.24-.08c1.18-.26 1.98.34 2.21 1.38.22.97-.2 1.72-1.13 1.93zm-3.84.72l.82-.06c-.13-.08-.18-.16-.2-.32l-.22-3.2c-.02-.16.02-.25.14-.34l-.82.06c.13.08.18.17.19.32l.23 3.2c.02.16-.02.25-.15.34zm-2.24-1.84l-.12.91-.1-.17-2.09-3.24-.01.35-.47 3.15c-.02.18-.09.27-.25.35l.71.1c-.16-.12-.19-.23-.17-.4l.16-1.48.13-1.03.06.14 2.08 3.19.54-3.56c.02-.18.09-.27.25-.35l-.72-.1c.16.12.2.23.18.41l-.2 1.76zm-5.07.8l.75.3c-.13-.17-.14-.27-.12-.58l.12-3.73-.48-.04c.01.06 0 .14-.02.22-.02.04-.06.11-.1.16l-1.3 1.55-.82.92c-.16.17-.3.21-.46.21l.64.26c-.02-.04-.01-.1 0-.14.02-.05.08-.12.13-.19l.55-.71c.09.03.3.09.62.22.31.13.58.25.69.31l-.02.9c0 .18-.09.3-.17.34zm-.44-1.71c-.24-.1-.44-.18-.54-.23l.05-.06 1.19-1.47-.06 1.99c-.16-.06-.41-.14-.63-.23zm-5.96-1.84c-.02-.08-.01-.18.09-.32l1-1.29.43-.52.04-.06-.43 2.91 2.48-1.55-.05.08-1.04 2c-.09.17-.21.26-.32.24l.66.45c-.03-.12-.06-.23.06-.43l1.62-3.17h-.01l-2.85 1.77.49-3.36-1.1 1.31L64.32 73c-.09.1-.21.19-.35.17l.52.35zm-2.79-2.41c.61.67 1.4.59 2.12-.05.98-.88 1.11-1 1.52-1.31.12-.1.21-.13.36-.1l-.44-.48c.01.15-.03.23-.14.35-.35.38-.49.51-1.53 1.42-.5.46-1.14.56-1.63.02-.49-.55-.31-1.06.17-1.48l1.63-1.47c.11-.11.22-.13.37-.1l-.56-.61c.02.15-.01.24-.13.35l-1.63 1.46c-.74.66-.74 1.31-.12 2.01z"/><path class="prefix__fil1" d="M77.39 42.23c-8.26.07-14.93 6.87-14.86 15.14.08 8.25 6.88 14.93 15.14 14.85 8.25-.09 14.92-6.89 14.85-15.14-.08-8.26-6.88-14.93-15.13-14.85zm9.36 20.2l-4.85-.92 1.01 4.84-3.74-3.22-1.54 4.69L76 63.16l-3.68 3.3.92-4.86-4.83 1.01 3.21-3.74-4.69-1.54 4.66-1.63-3.3-3.68 4.85.92-1.01-4.84 3.75 3.22 1.54-4.69 1.63 4.67 3.68-3.3-.92 4.86 4.84-1.01-3.23 3.74 4.69 1.54-4.66 1.63 3.3 3.68z"/><path class="prefix__fil1" d="M75.56 4.96C33.65 6.02 0 40.33 0 82.51c0 42.17 33.64 76.46 75.53 77.54h4.06c41.9-1.08 75.54-35.38 75.54-77.54 0-42.17-33.66-76.48-75.57-77.55h-4zM20.43 53.17c-.51-1.3-1.55-2.37-3-3.02l-.07-.03c-1.39-.6-2.71-.58-3.88-.01-1.2.58-2.2 1.73-2.93 3.35l-1.58 3.53.88-.52a.64.64 0 01.26-.1c.09-.01.2 0 .33.06l7.46 3.35c.16.07.26.16.31.24.05.07.08.17.1.26l.2 1c.57-1.27 1.15-2.54 1.71-3.81.66-1.52.68-3.01.2-4.28zm128.63 44.82l-.45-.92a.757.757 0 00-.2-.27c-.07-.06-.17-.09-.32-.11l-7.2-1.19c-1.09-.18-1.81-.67-2.25-1.33-.53-.79-.62-1.8-.47-2.72l.05-.33.64.11.02.25c.06.55.24 1.01.59 1.37.37.37.92.63 1.74.77l7.17 1.21c.14.02.25.02.34-.01.09-.02.17-.09.28-.19l.72-.73-.67 4.07zm-1.54 5.35l-.32-.98a.533.533 0 00-.15-.29c-.06-.07-.16-.12-.29-.17l-5.29-1.74c-.7-.22-1.34-.29-1.87-.1-.51.19-.92.63-1.18 1.4v.02c-.25.77-.15 1.42.18 1.95.34.54.94.95 1.69 1.19 1.63.54 2.57.84 3.27 1.05.69.21 1.12.32 1.77.48.16.04.28.05.37.04.09-.02.18-.05.29-.13l.83-.61-1.16 3.53-.31-.97a.663.663 0 00-.15-.28c-.07-.07-.18-.13-.32-.19-1.21-.5-1.62-.64-4.77-1.68l-.07-.02c-1.23-.42-2.15-1.07-2.67-1.93-.52-.85-.63-1.87-.25-3.03.4-1.22.99-2.05 1.82-2.48.82-.44 1.86-.45 3.13-.04l5.28 1.74c.14.05.24.06.34.05.1-.01.18-.06.29-.14l.83-.61-1.29 3.94zm-44.43 44.42c-.19.48-.49.92-.79 1.05-.29.12-.83.03-1.3-.16-.48-.2-.93-.5-1.06-.8-.12-.3-.03-.82.16-1.3.19-.48.5-.93.79-1.06.3-.12.84-.03 1.31.16.48.2.94.5 1.05.79.13.3.04.83-.16 1.31zm-48.11.13c-.12.3-.55.63-1.02.84-.46.21-.99.33-1.3.22-.29-.1-.62-.54-.83-1.01-.21-.47-.33-1-.23-1.3.11-.31.55-.63 1.02-.84.46-.22.99-.33 1.29-.22.3.11.63.55.84 1.02.21.46.33.99.23 1.29zm-26.83-25.55c-.15.92-.76 1.76-1.85 2.53l-4.55 3.17c-.12.09-.2.16-.25.25a.73.73 0 00-.06.32l-.01 1.02-2.37-3.39.97.34c.13.05.23.07.32.05.09-.01.19-.06.31-.14l4.56-3.19c.64-.44 1.09-.95 1.23-1.53.11-.5 0-1.06-.44-1.69-.45-.64-1-.96-1.59-1.03-.67-.07-1.39.16-2.07.64-1.4.98-2.2 1.55-2.8 1.98-.58.43-.93.71-1.44 1.13-.13.1-.21.19-.26.27a.57.57 0 00-.07.31l-.01 1.03-2.12-3.04.96.34c.12.04.22.06.31.04.1-.01.21-.06.35-.15.56-.33.92-.56 1.49-.94.62-.41 1.37-.93 2.71-1.87h.01c1.05-.74 2.12-1.1 3.12-1.03 1.02.08 1.93.6 2.66 1.63.73 1.05 1.04 2.03.89 2.95zm-14.74-2.94l4.1-9.49-1.22.6-3.97 2.08c-.14.07-.25.15-.31.24s-.11.22-.11.41l-.07 1.25-1.86-3.74.95.56c.15.09.28.14.39.14.11 0 .24-.03.39-.1 2.98-1.46 6.02-2.85 9.02-4.27l-3.88 9.15 1.5-.74 3.34-1.75c.14-.08.26-.16.33-.25.06-.09.09-.22.1-.41l.07-1.24 1.84 3.73-.95-.57c-.16-.08-.28-.13-.4-.14-.11 0-.23.03-.38.1l-7.28 3.46-1.62.98zm-3.6-11.69l-.3.98-1.15-3.42-1.25-4.16.33-.08c.14-.03.25-.07.35-.11.1-.05.2-.1.31-.18l5.39-3.61-2.74-.32-2.95-.3c-.1-.01-.22-.02-.33-.01-.12 0-.22.02-.28.02-.1.03-.17.08-.23.18-.07.12-.12.3-.13.51l-.08 2.41-1.22-5.03.61.26c.38.16.76.21 1.13.26 3.4.33 6.98.94 10.38 1.4l-8.72 6.07c-.12.09-.26.21-.37.36-.11.15-.18.34-.18.61l-.01 1.33.66.48c.11.08.21.13.29.14.1.01.21-.01.34-.05l7.72-2.57c.14-.04.23-.1.3-.16a.71.71 0 00.15-.29l.3-.98.32.97.98 2.94-.83-.6c-.11-.08-.2-.13-.3-.14-.09-.01-.2 0-.34.04l-7.71 2.57c-.13.05-.23.1-.3.17-.06.06-.1.16-.14.29zM4.55 85.99l.32-.03c.28-.03.74-.05 1.24-.02.35.01.72.05 1.05.12l.24.06.04.49-.22.09c-.47.21-.81.41-1 .79-.21.41-.27 1.06-.19 2.15.02.15.03.28.04.37h.08c.12 0 .26 0 .43-.01l2.71-.23-.15-1.83c-.02-.25-.05-.49-.08-.72-.04-.22-.07-.43-.12-.61l-.1-.45.46.05c.45.04.72.28.89.58.14.27.2.58.23.87l.17 1.99 3.38-.29c.07 0 .11-.02.14-.04.01-.03.03-.07.03-.11l-.07-.78c-.08-1.03-.32-1.67-.66-2.08-.33-.4-.81-.61-1.38-.76l-.23-.06-.04-.59.33-.03c.44-.04.93-.04 1.4-.02.48.02.93.05 1.24.11l.24.06.6 7.2-.67-.78a.952.952 0 00-.21-.19c-.08-.04-.2-.06-.39-.05l-8.14.68c-.15.02-.24.06-.32.11-.07.06-.14.14-.18.22l-.53.88-.59-7.14zm1.01-17.13c.07-.46.2-.9.37-1.29.16-.39.37-.74.62-1.06l.14-.17.21.07c.34.1.61.24.85.41.23.17.44.38.66.64l.3.35-.44.17c-.45.17-.8.4-1.05.68a2 2 0 00-.46 1.01c-.04.26-.03.49-.02.63a1.617 1.617 0 001 .53c.82.13 1.45-.62 2.13-1.42.92-1.1 1.93-2.29 3.69-2 .77.13 1.62.55 2.13 1.4.4.65.59 1.54.41 2.71-.07.42-.21.86-.39 1.26-.21.47-.46.88-.68 1.13l-.11.14-.18-.02c-.37-.05-.73-.14-1.06-.26-.33-.12-.64-.27-.92-.41l-.21-.11.08-.47.2-.06c.6-.16 1.07-.41 1.42-.76.34-.34.56-.8.66-1.4.03-.17.03-.36.02-.51-.02-.16-.04-.29-.06-.38-.13-.12-.3-.22-.46-.31-.2-.1-.4-.17-.59-.2-1.25-.21-1.98.69-2.71 1.57-.85 1.03-1.69 2.05-3.27 1.8-.72-.12-1.44-.53-1.9-1.26-.36-.6-.54-1.39-.37-2.4zm2.48-9.27l.35.96c.05.13.09.22.17.29.07.06.17.11.31.15l7.85 2.12c.14.04.24.06.34.03a.57.57 0 00.28-.17l.8-.64-.27.98-.81 2.99-.36-.96a.666.666 0 00-.16-.28.813.813 0 00-.31-.15l-7.85-2.12a.868.868 0 00-.34-.04c-.1.03-.18.08-.28.16l-.8.65 1.09-3.99zm38.16-36.9l-2.48-3.73c-.09-.14-.17-.24-.27-.29-.1-.06-.23-.08-.43-.06l-1.24.06 3.53-2.23-.46 1c-.06.16-.1.29-.09.41.01.12.05.24.14.37 1.79 2.73 3.49 5.73 5.19 8.53l-9.51-2.91.9 1.41 2.09 3.14c.1.14.17.24.28.3.1.06.22.08.41.07l1.25-.06-3.52 2.22.46-1.01c.07-.15.1-.29.1-.41s-.05-.23-.14-.37l-4.2-6.89-1.14-1.51 9.86 3.09-.72-1.13zm13.33-9.96c.66-1.26 1.8-2.18 3.3-2.57.44-.11.89-.17 1.33-.18.52-.02 1.02.02 1.42.08l.26.04.01.26c.04.33-.01.64-.09.92-.09.34-.25.64-.42.88l-.19.29-.28-.2c-.39-.3-.79-.47-1.17-.54a3.177 3.177 0 00-2.04.32c-.23.12-.43.25-.56.35a5.9 5.9 0 00-.43 1.76c-.04.61.01 1.26.19 1.95v.01c.3 1.15.84 2.09 1.57 2.67.72.56 1.63.79 2.66.52.54-.14.92-.33 1.18-.67.25-.36.4-.91.43-1.75l.01-.25.58-.15.08.32c.1.4.2.9.26 1.37.06.46.1.88.08 1.16l-.02.16-.13.09a7.245 7.245 0 01-2.58 1.2l-.03.01c-1.39.34-2.64.16-3.64-.47s-1.74-1.68-2.12-3.1l-.01-.03c-.43-1.68-.26-3.23.37-4.46zm12.69-3.85l-.77.68c-.1.09-.17.17-.2.26s-.04.2-.03.34l.83 8.09c.01.14.05.25.1.33.04.08.13.14.25.21l.89.51-1.03.1-3.09.32.77-.68c.11-.09.17-.17.21-.25.03-.09.04-.2.03-.34l-.83-8.09c-.01-.14-.04-.25-.1-.32a.724.724 0 00-.24-.21l-.9-.51 4.11-.41zM85.21 19.1a.79.79 0 00.35-.23c.07-.08.12-.2.15-.36l1.77-7.86.24-1.88 4.94 9.08.27-1.32.82-4.4c.04-.16.04-.29.01-.4-.03-.11-.11-.21-.25-.34l-.94-.83 4.09.85-1.02.4c-.17.06-.29.14-.36.23-.08.08-.12.2-.16.36-.76 3.24-1.48 6.5-2.2 9.75l-4.81-8.71-.34 1.64-.68 3.7c-.03.17-.04.3 0 .41.03.1.11.21.24.33l.94.83-4.08-.85 1.03-.4zM133.6 38c.11-.08.18-.17.22-.26.03-.09.04-.18.04-.28v-1.02l4.17 5.84-.27.19c-.22.17-.61.41-1.06.65-.3.17-.64.32-.96.43l-.23.07-.29-.39.13-.19c.3-.42.5-.77.47-1.19-.04-.46-.3-1.04-.94-1.94-.09-.13-.16-.22-.22-.3l-.07.04c-.1.06-.23.13-.37.23l-2.21 1.58 1.06 1.5c.15.2.3.4.44.57.14.18.27.33.41.47l.31.33-.41.2c-.41.19-.77.13-1.07-.05-.26-.16-.47-.4-.64-.63l-1.15-1.63-2.77 1.98c-.06.03-.08.08-.1.11 0 .03.02.06.03.1l.46.64c.59.85 1.12 1.28 1.63 1.46.5.17 1.01.11 1.58-.06l.22-.06.34.48-.26.19c-.37.26-.8.53-1.2.74-.42.24-.83.43-1.12.53l-.23.08-4.2-5.88.97.33c.08.03.18.06.28.06a.76.76 0 00.35-.15l6.67-4.74zm5.19 22.73c1.15-.48 1.3-1.64 1.45-2.78.17-1.32.35-2.64 1.82-3.26.68-.28 1.51-.32 2.27.07.62.31 1.19.9 1.59 1.84.18.43.31.86.37 1.28.07.41.09.82.03 1.22l-.04.22-.21.05c-.34.1-.64.13-.93.1-.29-.02-.56-.09-.89-.19l-.45-.14.29-.37c.29-.38.46-.76.53-1.14.06-.37.02-.74-.14-1.1-.1-.24-.23-.43-.31-.54-.16-.05-.32-.08-.48-.07-.2 0-.41.05-.65.15-.75.32-.9 1.29-1.04 2.33-.21 1.42-.43 2.96-2.08 3.65-.72.3-1.67.39-2.56-.06-.67-.34-1.31-.98-1.77-2.08-.16-.39-.27-.84-.33-1.27-.08-.5-.08-.99-.02-1.32l.02-.18.16-.07c.34-.16.69-.27 1.03-.34.34-.07.68-.11 1.01-.14l.23-.02.18.45-.13.15c-.42.45-.7.92-.81 1.4-.1.47-.06.98.18 1.53.07.17.16.32.26.45.09.13.18.23.25.28.17.03.37.03.56.02.22-.02.44-.07.61-.14zM68.7 154.56c-.45-.07-.91-.24-1.26-.45-.35-.22-.45-.42-.44-.52l1.3-8.24.04-.18-4.46.48v.27l1.03.02c.48.08.88.28 1.13.55.24.25.34.54.29.82l-.94 6.01c-.02.09-.15.22-.45.33-.25.1-.59.15-.89.15-.08 0-.14 0-.2-.01l-.1-.02-.08.08c-.06.07-.11.12-.15.15a.9.9 0 01-.2.1l-.61.29 2.3.36c1.08.17 2.16.35 3.24.52l.08.01.07-.08c.07-.07.11-.12.15-.15.04-.03.09-.05.15-.09l.86-.4-.88-.02zm16.16-8.83v-.03l-6.03.25-.1.01-.04.13c-.08.26-.14.6-.18.98-.06.51-.07 1.05-.07 1.3l.01.53.4-.45c.36-.42.58-.66.82-.81.24-.16.52-.22 1.04-.25l2.65-.11c-.26.61-.97 2.25-1.79 3.96-.7 1.46-1.29 2.6-1.74 3.4-.08.14-.16.27-.26.41-.11.14-.71.74-.71.75l-.15.15 2.31-.32.35-.83c.02-.05.04-.1.07-.17.02-.06.05-.13.08-.21.27-.65.98-2.42 1.67-4.13l.51-1.28c.41-1.01.72-1.88.87-2.31l.11-.31.11-.27h.09l.11-.35-.13-.03zm6.94 5.48c-.1-.76-.39-1.33-.83-1.72-.34-.29-.79-.48-1.3-.53.28-.28.49-.56.64-.85.22-.44.31-.89.25-1.37-.09-.63-.42-1.13-.97-1.45-.36-.2-.81-.31-1.3-.31-.15 0-.28 0-.42.02-.66.09-1.2.34-1.63.74-.53.5-.76 1.14-.8 1.57l-.05.62.41-.47c.31-.36.62-.61.95-.78.27-.14.55-.23.88-.27.37-.06.7.02.91.21.21.17.34.43.38.75l.01.04c.11 1.04-.75 1.68-1.75 2.41l-1.13.83 1.15-.35c.34-.1.66-.14.84-.17h.03c.54-.06 1.04.06 1.39.35.36.3.59.78.68 1.39.05.41.04.79-.04 1.14-.06.28-.17.5-.26.67-.09.05-.32.17-.83.24-.48.06-.83.04-1.18-.1-.41-.17-.8-.5-1.22-1.04l-.37-.46v.6c-.02.33 0 .67.02.94l.02.07c.02.13.04.3.09.46.05.24.13.45.24.64l.04.06.07.03c.31.09.53.12.78.13.07.01.13.02.21.02.18 0 .38-.02.7-.06 1.06-.14 1.94-.6 2.56-1.32.63-.75.94-1.76.82-2.7zm-15.21-4.37c-.52-.84-1.34-1.31-2.39-1.37h-.19c-.82 0-1.56.29-2.16.85-.68.62-1.11 1.49-1.16 2.35-.04.88.18 1.61.65 2.16.49.58 1.26.95 2.04 1 .06 0 .12.01.16.01.33 0 .66-.05.98-.16.18-.06.36-.14.54-.23-.33.9-.8 1.61-1.44 2.17-.72.64-1.63 1.07-2.8 1.33l-.46.09.38.27c.09.08.29.14.4.16.1.02.28.06.45.06l.07.01c.75 0 2.52-.39 3.86-1.84.99-1.06 1.53-2.46 1.63-4.16.06-1.03-.14-1.99-.56-2.69zm-3.41-.43c.08-.02.14-.02.2-.02h.27c.6.03 1.06.3 1.35.8.33.52.47 1.28.41 2.18-.02.52-.06.73-.08.93l-.01.04c-.14.08-.31.15-.51.2-.23.05-.48.07-.73.06a1.63 1.63 0 01-1.26-.7c-.3-.42-.43-.98-.4-1.67.05-.88.48-1.46.76-1.83zm77.29-68.14l-.52 1.13c-.09.18-.16.28-.25.34-.1.06-.21.1-.39.11l-4.45.48-1.34.11 7.28-7.32-1.87.32-8.05.55c-.16.02-.28 0-.4-.04-.1-.05-.2-.14-.3-.28l-.37-.47.23-.75c.06-.2.13-.33.24-.44.13-.14.33-.26.64-.47.56-.62 6.89-4.55 8.16-5.39l-1.01-1.67-.29.31c-.04.02-.08.06-.14.08-.06.03-.13.06-.2.08-.05.01-.12.03-.2.04h-.19l-5.1-.42-3.06-.37c-.25-.03-.44-.09-.56-.18-.14-.08-.25-.2-.35-.34l-.95-1.29 1.01 4.24.39-.91c.01 0 .03-.01.07-.02.03-.01.1-.01.19-.01.08 0 .2.01.31.01l2.05.09c.08.28.21.73.36 1.36.16.67.28 1.28.34 1.65l-1.73 1.15c-.14.09-.25.13-.37.16-.1.02-.2.01-.25-.01l-.62-.3.73 3.07.34 4.1.53-1.13c.08-.17.16-.27.24-.33.1-.06.23-.09.4-.11l3.74-.41 1.68-.14-6.97 7.09c3.18-.21 6.84-.64 9.96-.67a.7.7 0 01.4.05c.11.05.21.14.32.28l.68.87-.35-4.17zm-4.65-12.17l-3.02 1.99c-.1-.36-.22-.81-.31-1.21-.06-.28-.12-.55-.18-.77l-.05-.25 3.56.24zm-13.44 47.79c.18-.11.31-.17.46-.18.19-.02.44.01.81.06 2.21-.04 7.21.85 9.7 1.15l.31-1.92-.42.03c-.05 0-.1 0-.17-.02a.904.904 0 01-.21-.08c-.04-.02-.11-.05-.18-.1a.71.71 0 01-.13-.12l-3.64-3.62-2.1-2.26c-.17-.19-.27-.35-.32-.5-.05-.15-.06-.3-.05-.49l.11-1.6-1.96 3.89.87-.43c.02 0 .05.02.08.03.02.02.08.06.14.11.08.06.16.13.25.21l1.49 1.39c-.11.26-.3.69-.6 1.27-.31.62-.62 1.16-.8 1.48l-2.07-.24a1.24 1.24 0 01-.37-.11.474.474 0 01-.19-.18l-.27-.64-1.54 3.05-2.15 3.2 1.11-.55c.17-.09.3-.12.41-.11.11.01.23.07.37.16l3.18 2.03 1.39.93-9.88 1.17c2.72 1.91 5.5 3.78 8.19 5.72.13.09.22.18.28.28.05.11.07.24.07.41v1.1l2.32-3.46-1.11.56c-.17.08-.3.12-.41.11a.864.864 0 01-.36-.15l-3.78-2.42-1.12-.75 10.27-1.14-1.66-.93-6.61-4.6c-.14-.1-.23-.18-.28-.29-.06-.11-.08-.25-.08-.42l.02-.63.61-.4zm5.46-2.68c.13-.26.25-.5.37-.7l.11-.23 2.57 2.48-3.59-.43c.16-.35.35-.76.54-1.13zM10.92 79.57c.15-.16.41-.31.75-.52l2.94-1.48c.17-.1.28-.15.32-.14l.33.01.12-3.41-.65.97c-.15.25-.29.43-.46.58-.17.16-.38.31-.71.49l-3.27 1.78c-.17-.34-.4-.72-.73-1.06-.47-.47-1.12-.84-2.03-.87-.86-.03-1.56.26-2.06.88-.46.57-.72 1.42-.76 2.55l-.14 3.74.63-.83c.07-.09.14-.16.21-.2a.72.72 0 01.33-.06l8.19.3c.14.01.24.03.31.09.09.05.15.13.21.22l.57.87.15-4.15-.63.83c-.07.08-.14.16-.21.2a.65.65 0 01-.33.06l-3.28-.12.01-.3c0-.17.07-.3.18-.42zm-1.33.67l-3.08-.11c-.33-.01-.52-.04-.63-.05v-.29c.03-.73.27-1.19.63-1.47.35-.27.82-.37 1.31-.35h.03c.56.03 1 .21 1.3.55.3.34.47.86.44 1.53v.2zm73.24-69.97c-.77-.96-1.93-1.56-3.49-1.55-1.43.01-2.63.67-3.48 1.66-.91 1.07-1.42 2.54-1.41 4.02.02 1.41.45 2.8 1.33 3.76.79.85 1.91 1.39 3.41 1.37 1.37-.02 2.55-.69 3.39-1.7.9-1.08 1.42-2.54 1.41-3.99-.01-1.36-.41-2.63-1.17-3.58zm-.73 4.3c0 .78-.08 1.4-.26 1.93-.17.5-.45.94-.81 1.35a3.23 3.23 0 01-1.38.28h-.01c-.94.01-1.74-.38-2.32-1.1-.59-.76-.96-1.87-.97-3.32v-.01c-.01-.71.07-1.32.23-1.87.16-.51.41-.98.76-1.41.23-.1.43-.17.63-.22.23-.05.46-.06.75-.06 1.02-.02 1.85.36 2.43 1.08.59.75.93 1.87.95 3.34v.01zm29.22 11.16c-.51.47-.98.79-1.47.88-.5.09-1.06-.02-1.78-.41l-.78-.41a.506.506 0 01-.2-.16c-.01-.05 0-.13.07-.24l3.7-6.96c.07-.13.15-.21.23-.25.08-.04.18-.06.28-.08l1.01-.13-3.64-1.94.44.91c.05.09.09.17.1.27.01.09-.01.21-.08.33l-3.84 7.22c-.08.16-.17.25-.25.3-.08.04-.18.06-.27.07l-.45.06-.75-.89c-.13-.15-.2-.28-.22-.44-.05-.18-.05-.43-.05-.81-.08-3.23-.04-6.52-.06-9.77l-1.94-.06.1.41c.01.04.01.1 0 .16-.01.07-.03.15-.05.22-.01.06-.04.13-.08.2-.03.05-.07.1-.1.15l-3.14 4.05-1.99 2.36c-.16.19-.31.31-.45.38s-.3.09-.48.1l-1.59.09 4.09 1.47-.54-.82c0-.02.01-.05.02-.08.02-.03.04-.08.09-.16.05-.08.11-.17.18-.27l1.19-1.66c.27.08.73.21 1.33.43.66.24 1.23.47 1.57.61l.02 2.08c0 .16-.02.29-.06.39-.05.11-.1.17-.15.2l-.59.36 3.61 1.29-.49.07 6.17 3.28.17-.17c.18-.19.46-.52.75-.91.3-.4.63-.86.92-1.31l.19-.3-.55-.3-.17.16zm-11-6.5c-.29-.11-.54-.19-.75-.27l-.24-.09 2.14-2.86.03 3.61c-.37-.11-.81-.25-1.19-.39zm-39.77 1.95l-1.21-.15a.938.938 0 01-.47-.16c-.16-.11-.33-.29-.58-.56l-6.69-7.13-1.47 1.27.35.24c.03.02.07.06.1.12.05.06.09.12.12.19.02.05.04.12.06.2.02.05.03.12.03.17l.45 5.11.15 3.08c.01.25-.02.44-.08.59-.05.14-.16.27-.28.4l-1.11 1.16L53.93 24l-.96-.23c-.01-.02-.03-.04-.04-.07-.01-.03-.02-.09-.03-.17-.02-.11-.04-.21-.06-.31l-.25-2.03c.25-.14.68-.34 1.26-.59.63-.27 1.21-.48 1.57-.62l1.43 1.51c.11.11.17.22.21.33.04.11.04.2.03.25l-.2.67 3.63-1.55zm-7.11-1.62c-.25.11-.5.21-.73.3l-.24.1-.36-3.55 2.46 2.64c-.34.17-.75.36-1.14.52zm75.24 11.2l-2.67-2.79.14 1.01c.01.09.02.19 0 .29-.02.09-.07.19-.18.29l-5.91 5.65c-.13.12-.24.18-.33.2-.1.01-.19 0-.28-.01l-1.01-.19 2.85 2.97c1.16 1.22 2.56 1.82 3.95 1.84 1.39.02 2.77-.54 3.92-1.63 1.14-1.09 1.63-2.37 1.52-3.69-.1-1.31-.78-2.66-2-3.93zm-1.26 6.6c-.86.81-1.76 1.23-2.67 1.25-.88.02-1.76-.36-2.52-1.15-.34-.37-.53-.64-.54-.87-.01-.22.15-.47.49-.8l4.69-4.49c.19-.18.29-.28.34-.33.08.06.18.16.3.28.98 1.03 1.42 2.13 1.38 3.18-.05 1.05-.56 2.06-1.47 2.94zm-96.9-3.94c-1.15-1.07-2.45-1.49-3.77-1.31-1.3.18-2.61.94-3.81 2.22l-2.64 2.83 1.01-.2c.1-.02.19-.04.29-.02.09.02.19.06.3.16l5.98 5.58c.12.13.19.22.21.32.01.09.01.19 0 .28l-.08.57-.93.48c-.18.1-.32.14-.48.14-.19 0-.43-.06-.8-.14-2.54-.83-6.76-1.49-9.54-2.11l-.49 1.88h.42c.04 0 .1.02.15.04.06.02.14.06.2.1.05.02.11.07.16.12.04.04.1.08.13.13l3.26 3.96 1.86 2.45c.15.21.24.37.27.53.04.15.02.31-.01.49l-.26 1.59 2.35-3.68-.92.35c-.02-.01-.05-.02-.07-.05a.486.486 0 01-.14-.11c-.07-.07-.15-.16-.21-.23l-1.36-1.54c.14-.25.37-.66.72-1.2.38-.6.72-1.09.94-1.39l2.03.44c.15.03.27.09.36.16.1.06.15.14.17.18l.22.66 1.94-3.05-.03.23 2.8-2.99c1.13-1.22 1.66-2.63 1.62-4-.04-1.41-.69-2.78-1.86-3.88zm-9.14 13.04c-.15.24-.3.46-.43.66l-.14.21-2.31-2.73 3.53.78c-.18.33-.42.72-.64 1.07zm8.61-6.06c-.35.37-.61.57-.84.59-.21.02-.48-.13-.81-.45l-4.75-4.43c-.17-.16-.27-.27-.34-.34.06-.08.14-.18.24-.28.95-1.02 1.99-1.51 3.01-1.56 1.07-.05 2.15.42 3.1 1.31.85.8 1.32 1.7 1.39 2.6.06.88-.26 1.77-1.01 2.56zm-10.8 16.55c-.21.46-.38.74-.6.83-.2.09-.49.03-.93-.16l-6.36-2.86c.03-.09.08-.22.14-.36l.02-.02c.58-1.3 1.44-2.1 2.42-2.45.98-.36 2.12-.26 3.27.25l.01.01c1.06.48 1.8 1.18 2.15 2.01.34.81.32 1.76-.13 2.75zm58.38 84.42c-32.5 0-58.84-26.34-58.84-58.84s26.34-58.84 58.84-58.84 58.83 26.34 58.83 58.84-26.33 58.84-58.83 58.84z"/><path class="prefix__fil0" d="M72.6 139.2h9.93c1.68-.15 3.35-.36 4.98-.66h-19.9c1.64.3 3.3.51 4.99.66zM55.74 135.04h43.65c.6-.25 1.2-.52 1.79-.79H53.95c.6.27 1.2.54 1.8.79zM47.72 130.89h59.69c.49-.31.96-.62 1.45-.94H46.28c.48.32.96.63 1.45.94zM41.91 126.73h71.3c.43-.35.86-.71 1.28-1.07H40.63c.42.36.84.72 1.28 1.07zM37.36 122.57h80.41c.39-.4.78-.8 1.16-1.21H36.2c.38.41.76.81 1.16 1.21zM33.65 118.41h87.84c.36-.44.71-.89 1.05-1.34H32.6c.34.45.7.9 1.05 1.34zM30.6 114.25h93.94c.33-.49.65-.98.96-1.49H29.63c.32.51.64.99.97 1.49zM28.07 110.1h98.99c.29-.54.57-1.08.85-1.63H27.21c.28.55.56 1.09.86 1.63zM26.01 105.94h103.12c.25-.58.51-1.17.75-1.76H25.27c.24.59.49 1.18.75 1.76zM24.35 101.78h106.42c.21-.64.43-1.27.63-1.91H23.7c.2.64.43 1.27.64 1.91zM23.07 97.62h109c.18-.68.35-1.36.5-2.04H22.56c.16.68.33 1.36.51 2.04zM22.12 93.47H133c.14-.72.33-1.68.44-2.41H21.76c.11.73.23 1.69.37 2.41z"/></g></g></svg>