<svg width="22" height="22" viewBox="0 0 22 22" fill="none" xmlns="http://www.w3.org/2000/svg">
<path d="M9.36304 1.42822L10.447 0.344238C10.906 -0.114746 11.6482 -0.114746 12.1023 0.344238L21.5945 9.83154C22.0535 10.2905 22.0535 11.0327 21.5945 11.4868L12.1023 20.979C11.6433 21.438 10.9011 21.438 10.447 20.979L9.36304 19.895C8.89917 19.4312 8.90894 18.6743 9.38257 18.2202L15.2664 12.6147H1.23315C0.58374 12.6147 0.0612793 12.0923 0.0612793 11.4429V9.88037C0.0612793 9.23096 0.58374 8.7085 1.23315 8.7085H15.2664L9.38257 3.10303C8.90405 2.64893 8.89429 1.89209 9.36304 1.42822Z" fill="black"/>
</svg>
