<svg width="65" height="52" viewBox="0 0 65 52" fill="none" xmlns="http://www.w3.org/2000/svg">
<path d="M61.5564 37.7312C61.8165 36.3211 61.8165 34.8809 61.5564 33.4708L64.1367 31.9806C64.4367 31.8106 64.5668 31.4606 64.4667 31.1305C63.7967 28.9703 62.6466 27.0101 61.1464 25.3899C60.9164 25.1399 60.5463 25.0799 60.2463 25.2499L57.666 26.7401C56.5759 25.81 55.3258 25.0899 53.9756 24.6098V21.6295C53.9756 21.2895 53.7356 20.9895 53.4056 20.9194C51.1753 20.4194 48.9051 20.4394 46.7849 20.9194C46.4548 20.9895 46.2148 21.2895 46.2148 21.6295V24.6098C44.8647 25.0899 43.6146 25.81 42.5244 26.7401L39.9442 25.2499C39.6541 25.0799 39.2741 25.1399 39.0441 25.3899C37.5439 27.0101 36.3938 28.9703 35.7237 31.1305C35.6237 31.4606 35.7637 31.8106 36.0538 31.9806L38.634 33.4708C38.374 34.8809 38.374 36.3211 38.634 37.7312L36.0538 39.2214C35.7537 39.3914 35.6237 39.7414 35.7237 40.0715C36.3938 42.2317 37.5439 44.1819 39.0441 45.8121C39.2741 46.0621 39.6441 46.1221 39.9442 45.9521L42.5244 44.4619C43.6146 45.392 44.8647 46.1121 46.2148 46.5922V49.5725C46.2148 49.9125 46.4548 50.2125 46.7849 50.2825C49.0151 50.7826 51.2854 50.7626 53.4056 50.2825C53.7356 50.2125 53.9756 49.9125 53.9756 49.5725V46.5922C55.3258 46.1121 56.5759 45.392 57.666 44.4619L60.2463 45.9521C60.5363 46.1221 60.9164 46.0621 61.1464 45.8121C62.6466 44.1919 63.7967 42.2317 64.4667 40.0715C64.5668 39.7414 64.4267 39.3914 64.1367 39.2214L61.5564 37.7312ZM50.1052 40.4515C47.4249 40.4515 45.2547 38.2713 45.2547 35.601C45.2547 32.9307 47.435 30.7505 50.1052 30.7505C52.7755 30.7505 54.9557 32.9307 54.9557 35.601C54.9557 38.2713 52.7855 40.4515 50.1052 40.4515ZM22.9024 26C29.9731 26 35.7037 20.2694 35.7037 13.1986C35.7037 6.12788 29.9731 0.397278 22.9024 0.397278C15.8316 0.397278 10.101 6.12788 10.101 13.1986C10.101 20.2694 15.8316 26 22.9024 26ZM43.0245 48.6524C42.7945 48.5324 42.5644 48.3923 42.3444 48.2623L41.5543 48.7224C40.9543 49.0624 40.2742 49.2524 39.5941 49.2524C38.504 49.2524 37.4539 48.7924 36.7038 47.9923C34.8736 46.0121 33.4735 43.6018 32.6834 41.0316C32.1333 39.2614 32.8734 37.3912 34.4736 36.4611L35.2637 36.001C35.2537 35.741 35.2537 35.481 35.2637 35.221L34.4736 34.7609C32.8734 33.8408 32.1333 31.9606 32.6834 30.1904C32.7734 29.9004 32.9034 29.6104 33.0034 29.3203C32.6234 29.2903 32.2534 29.2003 31.8633 29.2003H30.1931C27.9729 30.2204 25.5026 30.8005 22.9024 30.8005C20.3021 30.8005 17.8418 30.2204 15.6116 29.2003H13.9414C6.52064 29.2003 0.5 35.221 0.5 42.6417V46.8022C0.5 49.4525 2.65023 51.6027 5.30051 51.6027H40.5042C41.5143 51.6027 42.4544 51.2826 43.2245 50.7526C43.1045 50.3726 43.0245 49.9825 43.0245 49.5725V48.6524Z" fill="white"/>
</svg>
